<svg xmlns="http://www.w3.org/2000/svg" viewBox="0 0 80 80"><path d="M50 64h-4V43c0-1.1-.9-2-2-2H32c-1.1 0-2 .9-2 2s.9 2 2 2h2v19h-4c-1.1 0-2 .9-2 2s.9 2 2 2h20c1.1 0 2-.9 2-2s-.9-2-2-2zm-12 0V45h4v19h-4zm2-24c-2.8 0-5-2.2-5-5s2.2-5 5-5 5 2.2 5 5-2.2 5-5 5zm0-6c-.6 0-1 .4-1 1s.4 1 1 1 1-.4 1-1-.4-1-1-1zm29.5-9.3L47.9.7C47.6.2 47 0 46.5 0H12c-1.1 0-2 .9-2 2v76c0 1.1.9 2 2 2h56c1.1 0 2-.9 2-2V26.1c0-.5-.2-1-.5-1.4zm-3.9 1.7l-13.2-.2c-3.3-.1-6-2.6-6.2-5.9L45.5 4h.1l20 22.4zM14 76V4h27.5l.7 16.4c.4 5.4 4.7 9.6 10.2 9.7l13.6.3V76H14z"/></svg>