<svg xmlns="http://www.w3.org/2000/svg" viewBox="0 0 80 80"><path d="M40 20c-11 0-20 9-20 20s9 20 20 20 20-9 20-20-9-20-20-20zm0 4c5 0 9.5 2.3 12.5 6l-8.8 5.3c-1-.8-2.3-1.2-3.6-1.2-1.4 0-2.6.5-3.7 1.3L27.5 30c3-3.7 7.5-6 12.5-6zm0 18c-1.1 0-2-.9-2-2s.9-2 2-2 2 .9 2 2-.9 2-2 2zm-16-2c0-2.4.5-4.6 1.5-6.6l8.7 5.2c-.1.5-.2.9-.2 1.4 0 2.6 1.7 4.8 4 5.7v10.2c-7.9-1-14-7.8-14-15.9zm18 15.9V45.7c2.3-.8 4-3 4-5.6 0-.5-.1-.9-.2-1.4l8.7-5.2c.9 2 1.5 4.3 1.5 6.6 0 8-6.1 14.8-14 15.8zM43.9 80h-7.8c-2.2 0-4.1-1.8-4.1-3.9v-5.3c0-.5-.2-.9-.3-.9-.1 0-.1 0-.2-.1l-6.9-3c-.1 0-.1-.1-.2-.1-.3-.1-.8-.1-1.1.2l-3.7 3.7c-1.6 1.6-4.3 1.6-5.9 0l-4.2-4.2c-.8-.8-1.2-1.8-1.2-2.9 0-1.1.4-2.2 1.2-3l3.7-3.6c.2-.2.3-.7.1-1 0-.1-.1-.1-.1-.2l-3-7.1c0-.1-.1-.1-.1-.2s-.4-.3-.9-.3H3.8c-2.3 0-3.9-1.6-3.9-3.9v-7.8c0-1.8 1.6-3.9 3.9-3.9h5.4c.5 0 .9-.2.9-.3 0-.1 0-.1.1-.2l3-7c0-.1.1-.1.1-.2.2-.3.1-.9-.2-1.1L9.4 20c-.8-.8-1.2-1.8-1.2-3 0-1.1.4-2.2 1.2-3l4.2-4.2c.8-.8 1.8-1.2 3-1.2 1.1 0 2.2.4 2.9 1.2l3.6 3.7c.2.2.7.3 1 .1.1 0 .1-.1.2-.1l7.1-3c.1 0 .1-.1.2-.1s.3-.4.3-.9v-6c0-2 1.4-3.3 3.4-3.3h8.8C46.3 0 48 1.6 48 3.5v5.8c0 .5.2.9.2.9.1 0 .1 0 .2.1l6.9 3c.1 0 .1.1.2.1.3.2.9.1 1.1-.2l3.7-3.7c1.6-1.6 4.3-1.6 5.9 0l4.2 4.2c1.6 1.6 1.6 4.3 0 5.9l-3.7 3.6c-.2.2-.3.7-.2 1 0 .1.1.1.1.2l3 7.1c0 .1.1.1.1.1 0 .1.4.3.9.3h5.5c2.2 0 3.9 1.9 3.9 4.1v7.8c0 2.2-1.8 4.1-4 4.1h-5.4c-.5 0-.9.1-.9.3 0 .1 0 .1-.1.2l-3 6.9c0 .1-.1.1-.1.2-.2.3-.1.9.2 1.1l3.7 3.7c.8.8 1.2 1.8 1.2 3 0 1.1-.4 2.2-1.2 3l-4.2 4.2c-.8.8-1.8 1.2-3 1.2-1.1 0-2.2-.4-2.9-1.2l-3.6-3.7c-.2-.2-.7-.3-1-.1-.1 0-.1.1-.2.1l-7.1 3c-.1 0-.1.1-.1.1-.1 0-.2.4-.2.9v5.3c-.1 2.1-2 3.9-4.2 3.9zM33 66c1.8.6 3 2.5 3 4.7V76l7.8-.1v-5.3c0-2.2 1.2-4.1 3.1-4.7l6.9-2.9c1.8-.9 4.2-.6 5.7.9l3.6 3.7h.2l4.2-4.2c.1-.1.1-.2 0-.3l-3.7-3.7c-1.5-1.5-1.8-3.9-.9-5.7l2.9-6.7c.6-1.8 2.5-3 4.7-3H76v-8h-5.4c-2.2 0-4.1-1.2-4.7-3L63 26.1c-.9-1.8-.6-4.2.9-5.6l3.7-3.6c.1-.1.1-.2 0-.2l-4.2-4.2c-.1-.1-.2-.1-.3 0L59.4 16c-1.5 1.5-3.9 1.8-5.8.9L47 14c-1.8-.6-3-2.5-3-4.7V4h-7.8v5.3c0 2.2-1.2 4.1-3.1 4.7l-6.9 2.9c-1.8.9-4.2.6-5.7-.9l-3.6-3.7h-.2l-4.2 4.2-.1.1c0 .1 0 .1.1.1l3.7 3.7c1.5 1.5 1.8 3.9.9 5.7l-2.9 6.8c-.6 1.8-2.5 3.1-4.7 3.1H4.1v7.6h5.4c2.2 0 4.1 1.2 4.7 3.1l2.9 7c.9 1.8.6 4.2-.9 5.7l-3.7 3.7s-.1 0-.1.1 0 .1.1.1l4.2 4.2c.1.1.2.1.3 0l3.7-3.7c1.5-1.5 3.9-1.8 5.7-.9L33 66zm43.1-30z"/></svg>