<svg xmlns="http://www.w3.org/2000/svg" viewBox="0 0 80 80"><path d="M14.7 59c-.5 0-1-.2-1.4-.6C6 51.2 2 41.6 2 31.4 2 21.3 6 11.8 13.1 4.6c.8-.8 2-.8 2.8 0s.8 2 0 2.8c-6.4 6.4-10 14.9-10 24 0 9.2 3.6 17.7 10.1 24.2.8.8.8 2 0 2.8-.2.4-.8.6-1.3.6zm52-.6C74 51.2 78 41.6 78 31.4c0-10.1-4-19.7-11.1-26.8-.8-.8-2-.8-2.8 0-.8.8-.8 2 0 2.8 6.4 6.4 10 14.9 10 24 0 9.2-3.6 17.7-10.1 24.2-.8.8-.8 2 0 2.8.4.4.9.6 1.4.6.4 0 .9-.2 1.3-.6zM26 48.4c.8-.8.8-2 0-2.8-3.8-3.8-5.9-8.8-5.9-14.2 0-5.3 2-10.3 5.7-14 .8-.8.8-2.1 0-2.8-.8-.8-2.1-.8-2.8 0-4.4 4.5-6.9 10.5-6.9 16.8 0 6.4 2.5 12.5 7.1 17 .4.4.9.6 1.4.6.5 0 1.1-.2 1.4-.6zm30.9 0c4.5-4.5 7-10.5 7-16.9s-2.5-12.4-7-16.9c-.8-.8-2-.8-2.8 0-.8.8-.8 2 0 2.8 3.8 3.8 5.8 8.8 5.8 14.1s-2.1 10.3-5.9 14c-.8.8-.8 2 0 2.8.4.4.9.6 1.4.6.6 0 1.1-.1 1.5-.5zm-7-17c0-5.5-4.5-10-9.9-10s-9.9 4.5-9.9 10c0 4.9 3.5 8.9 8.1 9.8-.1.3-.2.5-.2.8v36c0 1.1.9 2 2 2s2-.9 2-2V42c0-.3-.1-.5-.2-.8 4.6-.8 8.1-4.9 8.1-9.8z"/></svg>
