<svg xmlns="http://www.w3.org/2000/svg" viewBox="0 0 80 80"><path d="M58 68H22c-1.1 0-2-.9-2-2s.9-2 2-2h36c1.1 0 2 .9 2 2s-.9 2-2 2zm0-11H22c-1.1 0-2-.9-2-2s.9-2 2-2h36c1.1 0 2 .9 2 2s-.9 2-2 2zm0-11H22c-1.1 0-2-.9-2-2s.9-2 2-2h36c1.1 0 2 .9 2 2s-.9 2-2 2zM38 35H22c-1.1 0-2-.9-2-2s.9-2 2-2h16c1.1 0 2 .9 2 2s-.9 2-2 2zm29.9 45H12.1C11 80 10 79 10 77.9V2.1C10 1 11 0 12.1 0h34.3c.6 0 1.1.3 1.5.7l21.5 24c.3.4.6.9.6 1.4v51.8c0 1.1-1 2.1-2.1 2.1zM14 76h52V26.9L45.5 4H14v72zm52-46l-13.7-.1c-5.4-.1-9.8-4.1-10.1-9.5l-.8-18.1c0-1.1.8-2 1.9-2.1 1.1 0 2 .8 2.1 1.9l.8 18.1c.2 3.3 2.9 5.8 6.2 5.9l13.7.3c1.1 0 2 .7 2 1.8-.1 1.1-1 1.8-2.1 1.8z"/></svg>
