<svg xmlns="http://www.w3.org/2000/svg" viewBox="0 0 80 80"><path d="M58 67H32c-1.1 0-2-.9-2-2s.9-2 2-2h26c1.1 0 2 .9 2 2s-.9 2-2 2zm2-13c0-1.1-.9-2-2-2H32c-1.1 0-2 .9-2 2s.9 2 2 2h26c1.1 0 2-.9 2-2zm0-11c0-1.1-.9-2-2-2H32c-1.1 0-2 .9-2 2s.9 2 2 2h26c1.1 0 2-.9 2-2zM26 65c0 1.7-1.3 3-3 3s-3-1.3-3-3 1.3-3 3-3 3 1.3 3 3zm-3-13.9c-1.7 0-3 1.3-3 3s1.3 3 3 3 3-1.3 3-3c0-1.6-1.3-3-3-3zm0-10.8c-1.7 0-3 1.3-3 3s1.3 3 3 3 3-1.3 3-3-1.3-3-3-3zM68 80H12c-1.1 0-2-.9-2-2V2c0-1.1.9-2 2-2h34.5c.6 0 1.1.2 1.5.7l21.5 24.1c.3.4.5.8.5 1.3V78c0 1.1-.9 2-2 2zm-54-4h52V26.8L45.6 4H14v72zm52.1-46l-13.8-.1c-5.4-.1-9.8-4.2-10.2-9.6l-.7-18.1c0-1.1.8-2 1.9-2.1 1.1 0 2 .8 2.1 1.9l.8 18.2c.2 3.3 2.9 5.8 6.2 5.9l13.8.3c1.1 0 2 .8 2 1.9-.1 1-1 1.7-2.1 1.7z"/></svg>