<svg xmlns="http://www.w3.org/2000/svg" viewBox="0 0 80 80"><path d="M33 0C22.5 0 14 8.5 14 19s8.5 19 19 19 19-8.5 19-19S43.5 0 33 0zm0 34c-8.3 0-15-6.7-15-15S24.7 4 33 4s15 6.7 15 15-6.7 15-15 15zm8.9 8.7c-.2 1.1-1.2 1.8-2.3 1.6-2-.3-3.6-.3-3.6-.3h-8.5c-.1 0-6.9-.2-10.7 5.1-2 2.8-5.6 14.8-7.4 22-.2.7-.3 1.7-.3 2 0 .1 0 .3-.1.4-.2.7 0 1.4.4 1.9.3.4.7.6 1.2.6H36c1.1 0 2 .9 2 2s-.9 2-2 2H10.6c-1.7 0-3.3-.8-4.4-2.2-1.1-1.5-1.5-3.4-1.1-5.2 0-.4.2-1.6.4-2.5 1.1-4.7 5.1-19.3 8-23.3 5.1-7.1 13.7-6.8 14.1-6.8h8.3s1.8 0 4.2.4c1.2.1 1.9 1.2 1.8 2.3zm31-13.5l-6.7-4.4c-1-.7-2.3-.9-3.5-.7-1.2.3-2.3 1-3 2.1L57 30.6c-.6.9-.3 2.1.6 2.7l11.1 7.4c.3.2.7.3 1.1.3h.4c.5-.1 1-.4 1.3-.9l2.8-4.4c1.3-2.2.7-5.1-1.4-6.5zm-2 4.4l-1.7 2.6-7.7-5.2 1.7-2.7c.1-.2.3-.3.4-.3.1 0 .3 0 .4.1l6.7 4.4c.3.3.4.7.2 1.1zm-2 10.7L53.8 68.2c-.2.3-.5.6-.9.8l-11 4.9c-.3.1-.5.2-.8.2-.4 0-.8-.1-1.1-.3-.6-.4-.9-1-.9-1.7L39 59.7c0-.4.1-.8.3-1.1l15.1-23.9c.6-.9 1.8-1.2 2.8-.6.9.6 1.2 1.8.6 2.8L43 60.3l.1 8.6 7.7-3.4 14.8-23.4c.6-.9 1.8-1.2 2.8-.6.8.6 1.1 1.8.5 2.8zM44.8 62.4l15.1-24c.6-.9 1.8-1.2 2.8-.6.9.6 1.2 1.8.6 2.8l-15.1 24c-.4.6-1 .9-1.7.9-.4 0-.7-.1-1.1-.3-.9-.6-1.2-1.9-.6-2.8z"/></svg>
