<svg xmlns="http://www.w3.org/2000/svg" viewBox="0 0 80 80"><path d="M58.4 72H58c-.5-.1-1-.5-1.3-.9l-4.7-8-2.6 2.6c-.6.5-1.4.7-2.1.4-.7-.3-1.2-.9-1.3-1.7l-2-25.2c-.1-.8.3-1.5 1-1.9.7-.4 1.5-.4 2.1.1l20 13.4c.6.4.9 1.1.9 1.8-.1.7-.5 1.4-1.1 1.7l-4.2 2 4.5 8c.5.9.2 2.1-.6 2.6l-7.1 4.8c-.3.2-.7.3-1.1.3zm-6-14.1h.3c.6.1 1.1.4 1.5 1l4.9 8.3 3.8-2.6-4.6-8.3c-.3-.5-.3-1.1-.2-1.6.2-.5.5-1 1-1.2l2.9-1.4L48.3 43l1.3 16.8 1.4-1.4c.4-.3.9-.5 1.4-.5zM6 64l26.9-.1c1.1 0 2-.9 2-2s-.9-2-2-2L6 60c-.5 0-1-.2-1.4-.6-.4-.4-.6-.9-.6-1.4V22c0-1.1.9-2 2-2h68c1.1 0 2 .9 2 2v21.9c0 1.1.9 2 2 2s2-.9 2-2V22c0-3.3-2.7-6-6-6H6c-3.3 0-6 2.7-6 6v36c0 1.6.6 3.1 1.8 4.2C2.9 63.4 4.4 64 6 64z"/></svg>