<svg xmlns="http://www.w3.org/2000/svg" viewBox="0 0 80 80"><path d="M46.6 68H33c-.7 0-1.3-.3-1.7-.9l-7-10.9c-.4-.6-.4-1.5 0-2.1l14-23.1c.4-.6 1-1 1.7-1s1.4.4 1.7 1l14 23.5c.4.7.4 1.5-.1 2.2l-7.4 10.5c-.4.5-1 .8-1.6.8zm-12.5-4h11.4l6.1-8.6L40 35.9 28.4 55l5.7 9zM40 50c-1.1 0-2-.9-2-2V34c0-1.1.9-2 2-2s2 .9 2 2v14c0 1.1-.9 2-2 2zm0 7.6c-2.8 0-5-2.2-5-5s2.2-5 5-5 5 2.2 5 5-2.2 5-5 5zm0-6c-.6 0-1 .4-1 1s.4 1 1 1 1-.4 1-1c0-.5-.4-1-1-1zM66.1 30l-13.8-.1c-5.4-.1-9.8-4.2-10.2-9.6l-.7-18.1c0-1.1.8-2 1.9-2.1 1.1 0 2 .8 2.1 1.9l.8 18.2c.2 3.3 2.9 5.8 6.2 5.9l13.8.3c1.1 0 2 .8 2 1.9-.1 1-1 1.7-2.1 1.7zM68 80H12c-1.1 0-2-.9-2-2V2c0-1.1.9-2 2-2h34.5c.6 0 1.1.2 1.5.7l21.5 24.1c.3.4.5.8.5 1.3V78c0 1.1-.9 2-2 2zm-54-4h52V26.8L45.6 4H14v72z"/></svg>