<svg xmlns="http://www.w3.org/2000/svg" viewBox="0 0 80 80"><path d="M11.8 72h-6C2.6 72 0 69.4 0 66.1V24c0-1.1.9-2 2-2h76c1.1 0 2 .9 2 2v42.1c0 1.6-.6 3.1-1.7 4.2S75.7 72 74.2 72H68c-1.1 0-2-.9-2-2s.9-2 2-2h6.1c.5 0 1-.2 1.4-.5.4-.4.6-.8.6-1.3V26H4v40.2c0 1 .8 1.8 1.8 1.8h6c1.1 0 2 .9 2 2s-.9 2-2 2zM78 20c-1.1 0-2-.9-2-2v-3.9c0-1.2-.9-2.1-2.1-2.1H29.7c-.7 0-1.3-.3-1.7-.9l-4-6.2c-.4-.6-1-.9-1.7-.9H6c-1.1 0-2 .9-2 2v12c0 1.1-.9 2-2 2s-2-.9-2-2V6c0-3.3 2.7-6 6-6h16.3c2 0 3.9 1 5 2.7L30.8 8h43.1c3.4 0 6.1 2.7 6.1 6.1V18c0 1.1-.9 2-2 2zM37 73.2c-10.5 0-19-8.3-19-18.6S26.5 36 37 36s19 8.3 19 18.6c0 5-2 9.6-5.6 13.1-3.5 3.6-8.3 5.5-13.4 5.5zM37 40c-8.3 0-15 6.6-15 14.6s6.7 14.6 15 14.6c4 0 7.8-1.5 10.7-4.3 2.8-2.8 4.4-6.4 4.4-10.3 0-8-6.8-14.6-15.1-14.6zm23 40c-.5 0-1-.2-1.4-.6l-11-10.7c-.8-.8-.8-2 0-2.8.8-.8 2-.8 2.8 0l11 10.7c.8.8.8 2 0 2.8-.4.4-.9.6-1.4.6z"/></svg>