<svg xmlns="http://www.w3.org/2000/svg" viewBox="0 0 80 80"><path d="M14 68.1c-.3 0-.6-.1-.8-.2-.7-.3-1.2-1-1.2-1.8V49l-6.5-.1c-3-.1-5.5-2.6-5.5-5.5V5.5C0 2.6 2.5.1 5.6 0h56.5C65 0 67 2.3 67 5.5v37.9c0 3.1-2.2 5.5-5.2 5.5H36.6L15.3 67.6c-.4.3-.8.5-1.3.5zM62.1 4H5.6C4.8 4 4 4.7 4 5.5v37.9c0 .8.7 1.5 1.5 1.5l8.5.1c1.1 0 2 .9 2 2v14.7l18.6-16.2c.4-.3.8-.5 1.3-.5h25.9c1.1 0 1.2-1.2 1.2-1.5v-38c0-1-.3-1.5-.9-1.5zM66 80c-.5 0-1-.2-1.4-.5L44.4 60.9l-8.4.5c-1.1.1-2-.8-2.1-1.9-.1-1.1.8-2 1.9-2.1l9.3-.5c.5 0 1.1.2 1.5.5L64 73.5V59c0-1.1.9-2 2-2l8.5-.1c.8 0 1.5-.7 1.5-1.5V17.5v-.4h-1c-1.1 0-2-.9-2-2s.9-2 2-2h.6c3 0 4.4 1.4 4.4 4.4v37.9c0 3-2.4 5.4-5.4 5.5H68V78c0 .8-.5 1.5-1.2 1.8-.3.1-.5.2-.8.2zm10.3-62.9z"/></svg>