<svg xmlns="http://www.w3.org/2000/svg" viewBox="0 0 80 80"><path d="M80 35.9c0 3.7-1.3 7.1-3.7 9.5-2.5 2.5-5.9 3.9-9.6 3.9-4.5 0-9.2-2-12.7-5.4-3.6-3.5-5.6-8.1-5.7-12.7 0-3.7 1.3-7.1 3.7-9.6.8-.8 2-.8 2.8 0 .8.8.8 2 0 2.8-1.7 1.7-2.6 4-2.6 6.7 0 3.5 1.7 7.1 4.5 9.9 2.8 2.7 6.4 4.3 9.9 4.3 2.7 0 5.1-.9 6.8-2.7 1.7-1.7 2.6-4 2.6-6.7 0-3.5-1.7-7.1-4.5-9.9-.3-.3-.6-.6-.9-.8-1.3 4.1-3.3 10.5-4.8 14.9l-.5 1.7c-.3 1.1-1.5 1.6-2.5 1.3-1.1-.3-1.6-1.5-1.3-2.5l.6-1.7c3.1-9.6 5.9-18.3 6.1-19 .2-.5.1-.7-.2-1-1-1-9.7-9.6-10.6-10.6-.5-.5-1.1-.3-1.2-.3-.9.3-20.6 6.4-24.6 7.6l-24.1 24c-2.2 2.2-3.4 5-3.4 7.8 0 2.3.8 4.4 2.3 5.9l16.5 16.2c3.5 3.5 9.3 3 13.4-1l19.5-19.4c.8-.8 2-.8 2.8 0 .8.8.8 2 0 2.8L39.1 71.5c-3 3-6.8 4.5-10.5 4.5-3.2 0-6.2-1.2-8.6-3.5L3.5 56.2C1.2 54 0 50.9 0 47.5c0-3.9 1.7-7.7 4.6-10.6L29 12.5c.2-.2.5-.4.8-.5C39.4 9 54 4.5 54.7 4.3c1.9-.7 4-.2 5.4 1.2L70.6 16c1.4 1.4 1.9 3.3 1.2 5.2.9.6 1.7 1.3 2.4 2 3.7 3.5 5.8 8.1 5.8 12.7zm-25.2-9c-.9.6-1.2 1.8-.6 2.8.4.6 1 .9 1.7.9.4 0 .7-.1 1.1-.3 2.4-1.5 3.8-4.1 3.8-6.9 0-4.5-3.7-8.2-8.2-8.2-4.5 0-8.2 3.7-8.2 8.2 0 .5 0 1 .1 1.6.2 1.1 1.3 1.8 2.3 1.6 1.1-.2 1.8-1.3 1.6-2.3 0-.3-.1-.5-.1-.8 0-2.3 1.9-4.2 4.2-4.2 2.3 0 4.2 1.9 4.2 4.2.1 1.3-.7 2.6-1.9 3.4z"/></svg>