<svg xmlns="http://www.w3.org/2000/svg" viewBox="0 0 80 80"><path d="M16 80c-.3 0-.5-.1-.8-.2-.7-.3-1.2-1-1.2-1.8V58H6.9C3.1 58 0 54.9 0 51.1v-45C0 2.7 3.5.1 6.6 0H74c3.4 0 6 2.7 6 6.2V52c0 1.6-.6 3.1-1.8 4.2-1.1 1.1-2.6 1.8-4.2 1.8H40.8L17.4 79.5c-.4.3-.9.5-1.4.5zM74.1 4H6.7C5.4 4 4 5.2 4 6.2v45C4 52.7 5.3 54 6.9 54H16c1.1 0 2 .9 2 2v17.5l20.6-18.9c.4-.4.9-.6 1.4-.6h34c.5 0 1-.2 1.4-.6.4-.4.6-.9.6-1.4V6.2c0-1.1-.7-2.2-1.9-2.2zM64 28.7c0 3.3-2.7 6-6 6s-6-2.7-6-6 2.7-6 6-6 6 2.7 6 6zm-24-6c-3.3 0-6 2.7-6 6s2.7 6 6 6 6-2.7 6-6-2.7-6-6-6zm-18 0c-3.3 0-6 2.7-6 6s2.7 6 6 6 6-2.7 6-6-2.7-6-6-6z"/></svg>