<svg xmlns="http://www.w3.org/2000/svg" viewBox="0 0 80 80"><path d="M62 63c0 1.1-.9 2-2 2h-4v4c0 1.1-.9 2-2 2s-2-.9-2-2v-4h-4c-1.1 0-2-.9-2-2s.9-2 2-2h4v-4c0-1.1.9-2 2-2s2 .9 2 2v4h4c1.1 0 2 .9 2 2zm-8 17c-9.4 0-17-7.6-17-17s7.6-17 17-17 17 7.6 17 17-7.6 17-17 17zm0-30c-7.2 0-13 5.8-13 13s5.8 13 13 13 13-5.8 13-13-5.8-13-13-13zm4.5-29.1L40.8.7c-.4-.5-.9-.7-1.5-.7H11C9.9 0 9 .9 9 2v64c0 1.1.9 2 2 2h19.9c1.1 0 2-.9 2-2s-.9-2-2-2H13V4h21.8l.6 13.5c.3 4.7 4 8.4 8.7 8.4l10.9.3V40c0 1.1.9 2 2 2s2-.9 2-2V22.3c0-.5-.2-1-.5-1.4zm-19.1-3.6l-.5-12.7 15.4 17.6-10.1-.2c-2.6-.1-4.6-2.1-4.8-4.7z"/></svg>
