<svg xmlns="http://www.w3.org/2000/svg" viewBox="0 0 80 80"><path d="M32 42c-.5 0-1-.2-1.4-.6L19.4 30.6c-5.5 2-11.5.8-15.4-3.1-4.1-4.2-5.2-10.7-2.7-16.6.3-.6.8-1.1 1.5-1.2.7-.1 1.3.1 1.8.5l7.3 7.3L16 16l1.5-4.1-7.3-7.3c-.5-.5-.7-1.1-.5-1.8.1-.7.6-1.2 1.2-1.5C16.8-1.2 23.3-.1 27.4 4c3.9 3.9 5.1 9.8 3.1 15.4l10.8 11.2c.8.8.7 2.1-.1 2.8-.8.8-2.1.7-2.8-.1l-11.6-12c-.6-.6-.7-1.4-.4-2.2 1.9-4.4 1.2-9.3-1.8-12.3-2.3-2.3-5.7-3.3-9.2-2.7l5.9 5.9c.6.6.7 1.4.5 2.1l-2.3 6.1c-.2.5-.6 1-1.2 1.2l-6.2 2.3c-.7.3-1.6.1-2.1-.5l-5.8-5.9c-.6 3.5.4 6.9 2.7 9.2 3 3 7.8 3.7 12.3 1.8.7-.3 1.6-.2 2.2.4l12.1 11.7c.8.8.8 2 0 2.8-.5.6-1 .8-1.5.8zm30.6 38c-3.8 0-7.4-1.4-10.1-4-3.9-3.9-5.1-9.8-3.1-15.4L38.6 49.3c-.8-.8-.7-2.1.1-2.8.8-.8 2.1-.7 2.8.1l11.7 12.1c.6.6.7 1.4.4 2.2-1.9 4.4-1.2 9.3 1.8 12.3 2.3 2.3 5.7 3.3 9.2 2.7L58.7 70c-.6-.6-.7-1.4-.5-2.1l2.3-6.1c.2-.5.6-1 1.2-1.2l6.2-2.3c.7-.3 1.6-.1 2.1.5l5.8 5.9c.6-3.5-.4-6.9-2.7-9.2-3-3-7.8-3.7-12.3-1.8-.7.3-1.6.2-2.2-.4l-12-11.9c-.8-.8-.8-2 0-2.8.8-.8 2-.8 2.8 0l11.2 10.8c5.6-1.9 11.5-.8 15.4 3.1 4.1 4.2 5.2 10.7 2.7 16.6-.3.6-.8 1.1-1.5 1.2-.7.1-1.3-.1-1.8-.5l-7.3-7.3L64 64l-1.5 4 7.3 7.3c.5.5.7 1.1.5 1.8-.1.7-.6 1.2-1.2 1.5-2.1 1-4.3 1.4-6.5 1.4zM70 16c-.5 0-1-.1-1.4-.5l-4.2-4.1c-.4-.4-.6-.9-.6-1.4 0-.5.2-1.1.7-1.4l8.7-8c.8-.7 2-.7 2.8.1L79.4 4c.8.8.8 2 .1 2.8l-8 8.7c-.3.3-.9.5-1.5.5.1 0 .1 0 0 0zm-1.2-6l1.2 1.2 5.3-5.8-.7-.7-5.8 5.3zM11.3 80c-2.2 0-4.3-.9-5.8-2.4l-3.1-3.1c-3.2-3.2-3.2-8.5 0-11.7l17-17c.8-.8 2.1-.8 2.8 0l11.9 11.9c.8.8.8 2 0 2.8l-17 17c-1.5 1.6-3.5 2.5-5.8 2.5zm9.5-30L5.2 65.6c-1.7 1.7-1.7 4.4 0 6l3.1 3.1c.8.8 1.9 1.2 3 1.2s2.2-.4 3-1.2l15.6-15.6-9.1-9.1zm6.2 5c-.5 0-1-.2-1.4-.6-.8-.8-.8-2 0-2.8l40-40c.8-.8 2-.8 2.8 0 .8.8.8 2 0 2.8l-40 40c-.4.4-.9.6-1.4.6z"/></svg>
