<svg xmlns="http://www.w3.org/2000/svg" viewBox="0 0 80 80"><path d="M56 80H10c-1.1 0-2-.9-2-2V14c0-1.1.9-2 2-2h28.3c.6 0 1.1.2 1.5.7L57.5 33c.3.4.5.8.5 1.3V78c0 1.1-.9 2-2 2zm-44-4h42V35L37.4 16H12v60zm42.7-37.8L43.2 38c-4.7-.1-8.5-3.7-8.8-8.4l-.7-15.3c0-1.1.8-2 1.9-2.1 1.1-.1 2 .8 2.1 1.9l.7 15.3c.2 2.6 2.3 4.6 4.9 4.7l11.4.2c1.1 0 2 .9 2 2 0 1-.9 1.9-2 1.9zm16.8-17.3L53.8.7c-.4-.5-.9-.7-1.5-.7H24c-1.1 0-2 .9-2 2v6c0 1.1.9 2 2 2s2-.9 2-2V4h21.9l.6 13.5c.3 4.7 4.1 8.4 8.8 8.4l10.7.3V64h-6c-1.1 0-2 .9-2 2s.9 2 2 2h8c1.1 0 2-.9 2-2V22.3c0-.5-.2-1-.5-1.4zm-19-3.6l-.6-12.7 15.4 17.6-10-.2c-2.6-.1-4.7-2.1-4.8-4.7z"/></svg>