<svg xmlns="http://www.w3.org/2000/svg" viewBox="0 0 80 80"><path d="M12.1 80c-.4 0-.8-.1-1.1-.3-.6-.4-.9-1-.9-1.7L10 57.7c0-.4.1-.8.3-1.1l26.4-39.5c.6-.9 1.9-1.2 2.8-.6.9.6 1.2 1.9.6 2.8L14 58.3l.1 16.7 16-6.7 26.1-39c.6-.9 1.9-1.2 2.8-.6.9.6 1.2 1.9.6 2.8L33.1 71c-.2.3-.5.6-.9.7l-19.3 8.1c-.2.2-.5.2-.8.2zm9.5-14.1c-.4 0-.8-.1-1.1-.3-.9-.6-1.2-1.9-.6-2.8l26.5-39.6c.6-.9 1.9-1.2 2.8-.6.9.6 1.2 1.9.6 2.8L23.3 65c-.4.6-1 .9-1.7.9zm40.8-40.4c-.4 0-.7-.1-1.1-.3L42 13c-.5-.3-.8-.7-.9-1.3-.1-.5 0-1.1.3-1.5L46.2 3c2-3 6.1-3.8 9.1-1.9L67 8.4c1.5 1 2.5 2.4 2.9 4.1.4 1.7 0 3.4-.9 4.9l-4.8 7.2c-.5.6-1.1.9-1.8.9zM45.8 10.7l16 10.1 3.8-5.6c.4-.5.5-1.2.4-1.8-.1-.7-.5-1.2-1.1-1.6L53.2 4.4c-1.2-.8-2.9-.4-3.7.8l-3.7 5.5z"/></svg>