<svg xmlns="http://www.w3.org/2000/svg" viewBox="0 0 80 80"><path d="M72 70.5H24c-1.1 0-2-.9-2-2s.9-2 2-2h48c1.1 0 2 .9 2 2s-.9 2-2 2zm2-21c0-1.1-.9-2-2-2H24c-1.1 0-2 .9-2 2s.9 2 2 2h48c1.1 0 2-.9 2-2zm0-19c0-1.1-.9-2-2-2H24c-1.1 0-2 .9-2 2s.9 2 2 2h48c1.1 0 2-.9 2-2zm0-19c0-1.1-.9-2-2-2H24c-1.1 0-2 .9-2 2s.9 2 2 2h48c1.1 0 2-.9 2-2zm-58 57c0 2.8-2.2 5-5 5s-5-2.2-5-5 2.2-5 5-5 5 2.2 5 5zm-5-24c-2.8 0-5 2.2-5 5s2.2 5 5 5 5-2.2 5-5-2.2-5-5-5zm0-19c-2.8 0-5 2.2-5 5s2.2 5 5 5 5-2.2 5-5-2.2-5-5-5zm0-9c2.8 0 5-2.2 5-5s-2.2-5-5-5-5 2.2-5 5 2.2 5 5 5z"/></svg>
