<svg xmlns="http://www.w3.org/2000/svg" viewBox="0 0 80 80"><path d="M69.5 24.7L47.9.7C47.6.2 47 0 46.5 0H12c-1.1 0-2 .9-2 2v31.9c0 1.1.9 2 2 2s2-.9 2-2V4h27.5l.7 16.4c.4 5.4 4.7 9.6 10.2 9.7l13.6.3V76H14V54.2c0-1.1-.9-2-2-2s-2 .9-2 2V78c0 1.1.9 2 2 2h56c1.1 0 2-.9 2-2V26.1c0-.5-.2-1-.5-1.4zm-17.1 1.4c-3.3-.1-6-2.6-6.2-5.9L45.5 4h.1l20 22.4-13.2-.3zM37.2 46H6c-1.1 0-2-.9-2-2s.9-2 2-2h31.2l-7.4-7.6c-.8-.8-.7-2.1 0-2.8.8-.8 2.1-.7 2.8 0l9.1 9.4c.8.8 1.2 1.8 1.2 3 0 1.1-.4 2.2-1.2 3l-9.1 9.4c-.4.4-.9.6-1.4.6-.5 0-1-.2-1.4-.6-.8-.8-.8-2 0-2.8l7.4-7.6z"/></svg>