<svg xmlns="http://www.w3.org/2000/svg" viewBox="0 0 80 80"><path d="M20 28c0-1.1.9-2 2-2h12c1.1 0 2 .9 2 2s-.9 2-2 2H22c-1.1 0-2-.9-2-2zm2 16h36c1.1 0 2-.9 2-2s-.9-2-2-2H22c-1.1 0-2 .9-2 2s.9 2 2 2zm36 10H22c-1.1 0-2 .9-2 2s.9 2 2 2h36c1.1 0 2-.9 2-2s-.9-2-2-2zm11.5-29.3L47.9.7C47.6.2 47 0 46.5 0H12c-1.1 0-2 .9-2 2v76c0 1.1.9 2 2 2h56c1.1 0 2-.9 2-2V26.1c0-.5-.2-1-.5-1.4zm-3.9 1.7l-13.2-.2c-3.3-.1-6-2.6-6.2-5.9L45.5 4h.1l20 22.4zM14 76V4h27.5l.7 16.4c.4 5.4 4.7 9.6 10.2 9.7l13.6.3V76H14z"/></svg>