<svg xmlns="http://www.w3.org/2000/svg" viewBox="0 0 80 80"><path d="M60 49.6v10.7c0 1.3-.5 2.4-1.4 3-.6.5-1.2.7-1.9.7-.3 0-.6 0-1-.1l-4.4-1.4C49.7 62 48 60.1 48 58v6c0 2.2-1.7 4-3.7 4H23.8c-2.1 0-3.8-1.8-3.8-4V50c0-2.2 1.7-4 3.8-4h20.4c2.1 0 3.8 1.8 3.8 4v2c0-1.9 1.5-3.9 3.3-4.5l4.7-1.4c.9-.3 1.9-.1 2.7.4.8.7 1.3 1.8 1.3 3.1zM28 45c2.8 0 5-2.2 5-5s-2.2-5-5-5-5 2.2-5 5 2.2 5 5 5zm12 0c2.8 0 5-2.2 5-5s-2.2-5-5-5-5 2.2-5 5 2.2 5 5 5zm29.5-20.3L47.9.7C47.6.2 47 0 46.5 0H12c-1.1 0-2 .9-2 2v76c0 1.1.9 2 2 2h56c1.1 0 2-.9 2-2V26.1c0-.5-.2-1-.5-1.4zm-3.9 1.7l-13.2-.2c-3.3-.1-6-2.6-6.2-5.9L45.5 4h.1l20 22.4zM14 76V4h27.5l.7 16.4c.4 5.4 4.7 9.6 10.2 9.7l13.6.3V76H14z"/></svg>