<svg xmlns="http://www.w3.org/2000/svg" viewBox="0 0 80 80"><path d="M67.8 40c-6.6 0-12 5.4-12 12s5.4 12 12 12 12-5.4 12-12-5.3-12-12-12zm0 20c-4.4 0-8-3.6-8-8s3.6-8 8-8 8 3.6 8 8-3.5 8-8 8zM66 34V2c0-1.1.9-2 2-2s2 .9 2 2v32c0 1.1-.9 2-2 2s-2-.9-2-2zm4 36v8c0 1.1-.9 2-2 2s-2-.9-2-2v-8c0-1.1.9-2 2-2s2 .9 2 2zM39.7 16c-6.6 0-12 5.4-12 12s5.4 12 12 12 12-5.4 12-12-5.4-12-12-12zm0 20c-4.4 0-8-3.6-8-8s3.6-8 8-8 8 3.6 8 8-3.6 8-8 8zM38 10V2c0-1.1.9-2 2-2s2 .9 2 2v8c0 1.1-.9 2-2 2s-2-.9-2-2zm4 36v32c0 1.1-.9 2-2 2s-2-.9-2-2V46c0-1.1.9-2 2-2s2 .9 2 2zM10 22V2c0-1.1.9-2 2-2s2 .9 2 2v20c0 1.1-.9 2-2 2s-2-.9-2-2zm1.9 6c-6.6 0-12 5.4-12 12s5.4 12 12 12 12-5.4 12-12-5.4-12-12-12zm0 20c-4.4 0-8-3.6-8-8s3.6-8 8-8 8 3.6 8 8-3.6 8-8 8zM14 58v20c0 1.1-.9 2-2 2s-2-.9-2-2V58c0-1.1.9-2 2-2s2 .9 2 2z"/></svg>