<svg xmlns="http://www.w3.org/2000/svg" viewBox="0 0 80 80"><path d="M32.4 29.2c.8.8.8 2 0 2.8-.4.4-.9.6-1.4.6s-1-.2-1.4-.6L4 6.4V20c0 1.1-.9 2-2 2s-2-.9-2-2V2C0 .9.9 0 2 0h18c1.1 0 2 .9 2 2s-.9 2-2 2H7.2l25.2 25.2zm-2.8 18.4L4 73.2V60c0-1.1-.9-2-2-2s-2 .9-2 2v18c0 1.1.9 2 2 2h18c1.1 0 2-.9 2-2s-.9-2-2-2H6.8l25.6-25.6c.8-.8.8-2 0-2.8s-2-.8-2.8 0zM78 0H60c-1.1 0-2 .9-2 2s.9 2 2 2h13.2L47.6 29.6c-.8.8-.8 2 0 2.8.4.4.9.6 1.4.6s1-.2 1.4-.6L76 6.8V20c0 1.1.9 2 2 2s2-.9 2-2V2c0-1.1-.9-2-2-2zm0 58c-1.1 0-2 .9-2 2v13.3L50.6 47.9c-.8-.8-2-.8-2.8 0s-.8 2 0 2.8L73 76H60c-1.1 0-2 .9-2 2s.9 2 2 2h18c1.1 0 2-.9 2-2V60c0-1.1-.9-2-2-2z"/></svg>
