<svg xmlns="http://www.w3.org/2000/svg" viewBox="0 0 80 80"><path d="M66.8 68H13.2c-2.1 0-3.9-1.7-4.3-4.1L.1 32.5c-.2-.6 0-1.2.3-1.7.4-.5 1-.8 1.6-.8h76c.6 0 1.2.3 1.6.8.4.5.5 1.1.3 1.7L71.1 64c-.7 3.6-3.2 4-4.3 4zM4.6 34l8.1 29c0 .1 0 .2.1.2.1.5.3.8.4.8h53.7c.1 0 .3-.2.4-.9v-.2l8.1-29H4.6zM67 28c-1.1 0-2-.9-2-2v-2.9c0-.6-.4-1.1-.9-1.1H32.7c-.7 0-1.3-.4-1.7-.9l-2.9-4.7c-.2-.2-.4-.4-.7-.4H15.9c-.5 0-.9.5-.9 1v9c0 1.1-.9 2-2 2s-2-.9-2-2v-9c0-2.8 2.2-5 4.9-5h11.6c1.6 0 3.2.9 4.1 2.3l2.3 3.7h30.3c2.7 0 4.9 2.3 4.9 5.1V26c-.1 1.1-1 2-2.1 2z"/></svg>