<svg xmlns="http://www.w3.org/2000/svg" viewBox="0 0 80 80"><path d="M68 58c-1.1 0-2-.9-2-2V24c0-1.1-.9-2-2-2H16c-1.1 0-2-.9-2-2s.9-2 2-2h48c3.3 0 6 2.7 6 6v32c0 1.1-.9 2-2 2zm12-12V14c0-3.3-2.7-6-6-6H26c-1.1 0-2 .9-2 2s.9 2 2 2h48c1.1 0 2 .9 2 2v32c0 1.1.9 2 2 2s2-.9 2-2zM54 72H6c-3.3 0-6-2.7-6-6V34c0-3.3 2.7-6 6-6h48c3.3 0 6 2.7 6 6v32c0 3.3-2.7 6-6 6zM6 32c-1.1 0-2 .9-2 2v32c0 1.1.9 2 2 2h48c1.1 0 2-.9 2-2V34c0-1.1-.9-2-2-2H6zm47.4 27.4c-.4.4-.9.6-1.4.6-.5 0-1-.2-1.4-.6l-6.8-6.6-4.1 4.1 3.7 3.7c.8.8.8 2 0 2.8-.4.4-.9.6-1.4.6-.5 0-1-.2-1.4-.6L23.9 46.8 9.4 61.1c-.8.8-2.1.8-2.8 0-.8-.8-.8-2.1 0-2.8l15.9-15.7c.8-.8 2-.8 2.8 0l11.6 11.5 5.5-5.5c.8-.8 2-.8 2.8 0l8.2 8c.8.7.8 2 0 2.8zM42.8 41c0 2.2-1.8 4-4 4s-4-1.8-4-4 1.8-4 4-4c2.3 0 4 1.8 4 4zm-4 5c-2.8 0-5-2.2-5-5s2.2-5 5-5 5 2.2 5 5-2.2 5-5 5zm0-8c-1.7 0-3 1.3-3 3s1.3 3 3 3 3-1.3 3-3-1.3-3-3-3z"/></svg>