<svg xmlns="http://www.w3.org/2000/svg" viewBox="0 0 80 80"><path d="M20 22H10c-1.1 0-2-.9-2-2V10c0-1.1.9-2 2-2h10c1.1 0 2 .9 2 2v10c0 1.1-.9 2-2 2zm27-2V10c0-1.1-.9-2-2-2H35c-1.1 0-2 .9-2 2v10c0 1.1.9 2 2 2h10c1.1 0 2-.9 2-2zm25 0V10c0-1.1-.9-2-2-2H60c-1.1 0-2 .9-2 2v10c0 1.1.9 2 2 2h10c1.1 0 2-.9 2-2zM22 45V35c0-1.1-.9-2-2-2H10c-1.1 0-2 .9-2 2v10c0 1.1.9 2 2 2h10c1.1 0 2-.9 2-2zm25 0V35c0-1.1-.9-2-2-2H35c-1.1 0-2 .9-2 2v10c0 1.1.9 2 2 2h10c1.1 0 2-.9 2-2zm25 0V35c0-1.1-.9-2-2-2H60c-1.1 0-2 .9-2 2v10c0 1.1.9 2 2 2h10c1.1 0 2-.9 2-2zM22 70V60c0-1.1-.9-2-2-2H10c-1.1 0-2 .9-2 2v10c0 1.1.9 2 2 2h10c1.1 0 2-.9 2-2zm25 0V60c0-1.1-.9-2-2-2H35c-1.1 0-2 .9-2 2v10c0 1.1.9 2 2 2h10c1.1 0 2-.9 2-2zm25 0V60c0-1.1-.9-2-2-2H60c-1.1 0-2 .9-2 2v10c0 1.1.9 2 2 2h10c1.1 0 2-.9 2-2z"/></svg>
