<svg xmlns="http://www.w3.org/2000/svg" viewBox="0 0 80 80"><path d="M78 80H67.8c-1.1 0-2-.9-2-2V27.4H50c-1.1 0-2-.9-2-2v-7.2c0-1 .8-1.9 1.8-2 6.6-.6 11.1-1.7 13.6-3 2.2-1.2 3.9-4.6 5.1-9.6.2-.9 1-1.5 1.9-1.5H78c1.1 0 2 .9 2 2v74c0 1-.9 1.9-2 1.9zm-8.2-4H76V6h-4c-1.5 5.5-3.7 9-6.7 10.7-2.7 1.6-7.1 2.7-13.4 3.4v3.4h15.8c1.1 0 2 .9 2 2V76zM46 80h-9.3c-1.1 0-2-.9-2-2V43.2c0-4.6-.7-6.9-1.3-8-1.3-2.3-3.7-3.5-7.5-3.5-3.3 0-6.2 1.1-8.9 3.5-2.6 2.2-3.9 6.8-3.9 13.5V78c0 1.1-.9 2-2 2H2c-1.1 0-2-.9-2-2V2C0 .9.9 0 2 0h9.1c1.1 0 2 .9 2 2v22.9c.9-.9 1.8-1.6 2.7-2.2 3.2-2.2 7.3-3.3 12-3.3 8.6 0 14.6 3.2 17.7 9.5 1.7 3.4 2.5 7.8 2.5 13.6V78c0 1.1-.9 2-2 2zm-7.3-4H44V42.6c0-5.1-.7-9.1-2.1-11.8-2.4-4.9-7.1-7.3-14.1-7.3-3.9 0-7.2.9-9.8 2.6-1.5 1-3.3 2.8-5.3 5.4-.5.7-1.4.9-2.2.7-.8-.3-1.4-1-1.4-1.9V4H4v72h5.1V48.7c0-8 1.7-13.4 5.3-16.5 3.4-3 7.3-4.5 11.5-4.5 5.3 0 9 1.9 11 5.6 1.2 2.2 1.8 5.4 1.8 9.9V76z"/></svg>