<svg xmlns="http://www.w3.org/2000/svg" viewBox="0 0 80 80"><path d="M60 80H47c-1.1 0-2-.9-2-2V62H35v16c0 1.1-.9 2-2 2H20c-4.6 0-8-4.4-8-10.5V40c0-1.1.9-2 2-2s2 .9 2 2v29.5c0 3.2 1.4 6.5 4 6.5h11V60c0-1.1.9-2 2-2h14c1.1 0 2 .9 2 2v16h11c2.6 0 4-3.3 4-6.5V40c0-1.1.9-2 2-2s2 .9 2 2v29.5c0 6.1-3.3 10.5-8 10.5zm17.7-44.5l1.1-1.4c.9-1.2 1.2-2.7 1-4.1-.2-1.4-1-2.6-2.1-3.4l-9-6.5c-2.2-1.6-2.8-2.7-2.8-3.1V5.6C66 3.8 66 0 62.5 0h-6.6c-4 0-4 4-4 5.4v2.8l-8-5.8c-.9-.7-1.7-1.2-2.2-1.6-.7-.6-1-.8-1.7-.8h-.1c-.4 0-.9.2-1.2.4-.1.1-.5.4-1 .7L2.2 26.5C1 27.3.3 28.6 0 30c-.2 1.4.1 2.8 1 4l1.3 1.8c1.1 1.5 3 2.3 4.9 2.2.4 0 .7-.2 1-.4L40 14.4l31.8 23.2c.3.2.6.3 1 .4h.4c1.7 0 3.4-1 4.5-2.5zM41.6 5.6l11.2 8.1c.6.4 1.4.5 2.1.1 1.1-.6 1.1-1.6 1.1-2.5V5.2c0-.6 0-1.1.1-1.4h6c-.1.7-.1 1.4-.1 1.8v11.2c0 2.1 1.5 4.2 4.5 6.4l9 6.5c.3.2.4.6.5.8.1.4 0 .8-.2 1.1L74.6 33s0 .1-.1.1c-.3.4-.7.7-1 .8L41.2 10.3c-.7-.5-1.7-.5-2.4 0L6.4 34c-.3 0-.6-.2-.9-.5l-1.3-1.8c-.2-.3-.3-.7-.2-1 0-.4.2-.7.5-.9L40 4.4c.4.4 1 .8 1.6 1.2z"/></svg>