<svg xmlns="http://www.w3.org/2000/svg" viewBox="0 0 80 80"><path d="M74 70H6c-3.3 0-6-2.7-6-6V16c0-3.3 2.7-6 6-6h68c3.3 0 6 2.7 6 6v48c0 3.3-2.7 6-6 6zM6 14c-1.1 0-2 .9-2 2v48c0 1.1.9 2 2 2h68c1.1 0 2-.9 2-2V16c0-1.1-.9-2-2-2H6zm52 14c0 3.3-2.7 6-6 6s-6-2.7-6-6 2.7-6 6-6 6 2.7 6 6zm13.2 27.5c-.4.4-.9.6-1.4.6-.5 0-1-.2-1.4-.6L58.1 45l-5.8 6.1 5.2 5.5c.8.8.7 2.1-.1 2.8-.4.4-.9.6-1.4.6-.5 0-1.1-.2-1.5-.6L31.4 34.9 11.4 56c-.8.8-2 .8-2.8.1-.8-.8-.8-2-.1-2.8L30 30.6c.4-.4.9-.6 1.5-.6.5 0 1.1.2 1.5.6l16.6 17.6 7.1-7.5c.3-.4.8-.7 1.3-.7s1.1.3 1.4.7l11.8 12c.8.8.8 2.1 0 2.8z"/></svg>
