<svg xmlns="http://www.w3.org/2000/svg" viewBox="0 0 80 80"><path d="M78 24H60.3l4.6-17.5c.3-1.1-.4-2.2-1.4-2.4-1.1-.3-2.2.4-2.4 1.4L56.2 24H32.3l4.6-17.5c.3-1.1-.4-2.2-1.4-2.4-1.1-.3-2.2.4-2.4 1.4L28.2 24H10c-1.1 0-2 .9-2 2s.9 2 2 2h17.1l-6.4 24H2c-1.1 0-2 .9-2 2s.9 2 2 2h17.7l-4.6 17.5c-.3 1.1.4 2.2 1.4 2.4.2 0 .3.1.5.1.9 0 1.7-.6 1.9-1.5L23.8 56h23.9l-4.6 17.5c-.3 1.1.4 2.2 1.4 2.4.2 0 .3.1.5.1.9 0 1.7-.6 1.9-1.5L51.8 56H70c1.1 0 2-.9 2-2s-.9-2-2-2H52.9l6.4-24H78c1.1 0 2-.9 2-2s-.9-2-2-2zM48.8 52H24.9l6.4-24h23.9l-6.4 24z"/></svg>