<svg xmlns="http://www.w3.org/2000/svg" viewBox="0 0 80 80"><path d="M76 0H4C1.8 0 0 1.8 0 4v72c0 2.2 1.8 4 4 4h72c2.2 0 4-1.8 4-4V4c0-2.2-1.8-4-4-4zm0 76H4V18h72v58zm0-62H4V4h72v10zM21.9 9c0-1.1.9-2 2-2s2 .9 2 2-.9 2-2 2-2-.9-2-2zM9 11c1.1 0 2-.9 2-2s-.9-2-2-2-2 .9-2 2 .9 2 2 2zm7.4 0c1.1 0 2-.9 2-2s-.9-2-2-2-2 .9-2 2 .9 2 2 2zM26 70H14c-2.2 0-4-1.8-4-4V28c0-2.2 1.8-4 4-4h12c2.2 0 4 1.8 4 4v38c0 2.2-1.8 4-4 4zM14 28v38h12V28H14zm52 22H40c-2.2 0-4-1.8-4-4V28c0-2.2 1.8-4 4-4h26c2.2 0 4 1.8 4 4v18c0 2.2-1.8 4-4 4zM40 28v18h26V28H40zm26 42H40c-2.2 0-4-1.8-4-4v-6c0-2.2 1.8-4 4-4h26c2.2 0 4 1.8 4 4v6c0 2.2-1.8 4-4 4zM40 60v6h26v-6H40z"/></svg>