<svg xmlns="http://www.w3.org/2000/svg" viewBox="0 0 80 80"><path d="M71 63c0 1.1-.9 2-2 2h-4v4c0 1.1-.9 2-2 2s-2-.9-2-2v-4h-4c-1.1 0-2-.9-2-2s.9-2 2-2h4v-4c0-1.1.9-2 2-2s2 .9 2 2v4h4c1.1 0 2 .9 2 2zm9 0c0 9.4-7.6 17-17 17s-17-7.6-17-17 7.6-17 17-17 17 7.6 17 17zm-4 0c0-7.2-5.8-13-13-13s-13 5.8-13 13 5.8 13 13 13 13-5.8 13-13zM64 0H4C1.8 0 0 1.8 0 4v60c0 2.2 1.8 4 4 4h36c1.1 0 2-.9 2-2s-.9-2-2-2H4V16h60v24c0 1.1.9 2 2 2s2-.9 2-2V4c0-2.2-1.8-4-4-4zM4 12V4h60v8H4zm6-4c0 1.1-.9 2-2 2s-2-.9-2-2 .9-2 2-2 2 .9 2 2zm4-2c-1.1 0-2 .9-2 2s.9 2 2 2 2-.9 2-2-.9-2-2-2zm6 0c-1.1 0-2 .9-2 2s.9 2 2 2 2-.9 2-2-.9-2-2-2zm2 54H12c-2.2 0-4-1.8-4-4V24c0-2.2 1.8-4 4-4h10c2.2 0 4 1.8 4 4v32c0 2.2-1.8 4-4 4zM12 24v32h10V24H12zm44 18H34c-2.2 0-4-1.8-4-4V24c0-2.2 1.8-4 4-4h22c2.2 0 4 1.8 4 4v14c0 2.2-1.8 4-4 4zM34 24v14h22V24H34z"/></svg>