<svg xmlns="http://www.w3.org/2000/svg" viewBox="0 0 80 80"><path d="M69.9 13.4l-.1-.1-.3-.3C62.2 5 51.7 0 40 0S17.8 5 10.5 13l-.3.3-.1.1C3.8 20.5 0 29.8 0 40c0 22.1 17.9 40 40 40s40-17.9 40-40c0-10.2-3.8-19.5-10.1-26.6zm-1.8 49c-2.3-1.6-5-2.9-8-4 1.9-4.5 3.3-9.9 3.7-16.4h12.1c-.4 7.7-3.2 14.8-7.8 20.4zM4.1 42h12.1c.5 6.5 1.9 11.9 3.7 16.4-3 1-5.7 2.4-8 4C7.3 56.8 4.5 49.7 4.1 42zm8-24.7c2.3 1.6 4.9 2.9 7.9 3.9-2 4.6-3.4 10.1-3.9 16.8h-12c.4-7.8 3.3-15 8-20.7zM75.9 38h-12c-.5-6.7-1.9-12.3-3.9-16.8 3-1 5.6-2.3 7.9-3.9 4.7 5.7 7.6 12.9 8 20.7zM42 6.2c2.1 1.1 7.8 4.7 12.2 12.4-3.6.8-7.7 1.3-12.2 1.4V6.2zM38 20c-4.5-.1-8.6-.6-12.2-1.4C30.2 10.9 35.9 7.4 38 6.2V20zm0 4v14H20.1c.5-6.3 1.9-11.5 3.8-15.7 4.1 1 8.9 1.6 14.1 1.7zm0 18v13.6c-5.3.1-10.1.7-14.3 1.7-1.8-4.1-3.1-9.2-3.6-15.3H38zm0 17.6v14.2C35.9 72.7 30 69 25.6 61c3.6-.8 7.8-1.3 12.4-1.4zm4 0c4.6.1 8.8.6 12.4 1.4C50 68.9 44.1 72.6 42 73.8V59.6zm0-4V42h17.9c-.5 6.1-1.8 11.2-3.6 15.3-4.2-1-9-1.6-14.3-1.7zM42 38V24c5.2-.1 10-.7 14.1-1.7 1.9 4.2 3.3 9.4 3.8 15.7H42zm16.2-20.5C54.7 11.1 50.2 7 47 4.7c7 1.4 13.2 4.8 18.1 9.6-1.9 1.3-4.2 2.4-6.9 3.2zm-36.4 0c-2.6-.9-5-1.9-7-3.2C19.7 9.5 26 6.1 33 4.7c-3.2 2.3-7.7 6.4-11.2 12.8zm-.2 44.6C25.2 68.8 29.7 73 33 75.3c-7.1-1.4-13.5-4.9-18.4-9.9 1.9-1.3 4.3-2.4 7-3.3zm36.8 0c2.7.9 5 2 7 3.4-4.9 4.9-11.3 8.4-18.4 9.9 3.3-2.4 7.8-6.6 11.4-13.3z"/></svg>
