<svg xmlns="http://www.w3.org/2000/svg" viewBox="0 0 80 80"><path d="M18 80c-3.2 0-6.4-1.2-8.8-3.6l-5.8-5.7c-2.3-2.3-3.6-5.4-3.6-8.8 0-3.3 1.3-6.4 3.6-8.8l15.3-15.2c4.5-4.5 11.7-4.8 16.7-.8.9.7 1 2 .3 2.8-.7.9-2 1-2.8.3-3.4-2.8-8.2-2.5-11.3.5L6.3 55.9c-1.6 1.6-2.5 3.7-2.5 5.9s.9 4.4 2.5 5.9l5.8 5.7c3.3 3.3 8.7 3.3 12 0l15.3-15.2c3.1-3.1 3.3-7.9.5-11.2-.7-.9-.6-2.1.3-2.8.9-.7 2.1-.6 2.8.3 4.1 5 3.8 12.1-.8 16.6L26.8 76.4C24.4 78.8 21.2 80 18 80zm34.5-34.3c-2.8 0-5.6-.9-7.9-2.8-.9-.7-1-2-.3-2.8.7-.9 2-1 2.8-.3 3.4 2.8 8.2 2.5 11.3-.5l15.3-15.2c1.6-1.6 2.5-3.7 2.5-5.9s-.9-4.4-2.5-5.9l-5.8-5.7c-3.3-3.3-8.7-3.3-12 0L40.7 21.7c-3.1 3-3.3 7.9-.5 11.2.7.9.6 2.1-.3 2.8-.9.7-2.1.6-2.8-.3-4.1-5-3.8-12.1.8-16.6L53.2 3.6c4.9-4.8 12.7-4.8 17.6 0l5.8 5.7c2.3 2.3 3.6 5.5 3.6 8.8 0 3.3-1.3 6.4-3.6 8.8L61.3 42.1c-2.5 2.4-5.6 3.6-8.8 3.6zM23.3 58.6c-.5 0-1-.2-1.4-.6-.8-.8-.8-2 0-2.8L55.3 22c.8-.8 2-.8 2.8 0s.8 2 0 2.8L24.7 58c-.4.4-.9.6-1.4.6z"/></svg>