<svg xmlns="http://www.w3.org/2000/svg" viewBox="0 0 80 80"><path d="M18 80c-3.2 0-6.4-1.2-8.8-3.6l-5.8-5.7c-2.3-2.3-3.6-5.4-3.6-8.8 0-3.3 1.3-6.4 3.6-8.8l15.3-15.2c1.7-1.7 3.9-2.9 6.3-3.4 1.1-.2 2.1.5 2.4 1.6.2 1.1-.5 2.1-1.6 2.4-1.6.3-3.1 1.1-4.3 2.3L6.3 55.9c-1.6 1.6-2.5 3.7-2.5 5.9s.9 4.4 2.5 5.9l5.8 5.7c3.3 3.3 8.7 3.3 12 0l15.3-15.2c1-1 1.7-2.1 2.1-3.5.3-1.1 1.4-1.7 2.5-1.3 1.1.3 1.7 1.4 1.3 2.5-.6 1.9-1.7 3.7-3.1 5.1L26.8 76.4C24.4 78.8 21.2 80 18 80zm37.7-34.7c2.1-.6 4-1.7 5.6-3.2l15.3-15.2c2.3-2.3 3.6-5.5 3.6-8.8 0-3.3-1.3-6.4-3.6-8.8l-5.8-5.7c-4.9-4.8-12.7-4.8-17.6 0L37.9 18.8c-1.7 1.7-2.9 3.9-3.4 6.3-.2 1.1.5 2.1 1.6 2.4 1.1.2 2.1-.5 2.3-1.6.3-1.6 1.1-3.1 2.3-4.3L56 6.5c3.3-3.3 8.7-3.3 12 0l5.8 5.7c1.6 1.6 2.5 3.7 2.5 5.9s-.9 4.4-2.5 5.9L58.4 39.3c-1 1-2.3 1.8-3.8 2.2-1.1.3-1.7 1.4-1.4 2.4.2.9 1 1.5 1.9 1.5.2 0 .4-.1.6-.1z"/></svg>