<svg xmlns="http://www.w3.org/2000/svg" viewBox="0 0 80 80"><path d="M30.3 10.8c-.8.7-2.1.6-2.8-.2-2.5-3-6.2-4.7-10-4.7-7.4 0-13.4 6.4-13.4 14.1 0 6 8.5 22.8 13.4 31.7.3-.5.5-1 .8-1.5.5-1 1.7-1.3 2.7-.8 1 .5 1.3 1.7.8 2.7-1.6 2.9-2.6 4.7-2.6 4.7-.4.6-1 1-1.7 1s-1.4-.4-1.7-1C14.1 54 .1 29.2.1 20 .1 10 7.9 1.9 17.5 1.9c5 0 9.7 2.2 13 6.1.7.8.6 2.1-.2 2.8zm-12.8 7c.5 0 1 .1 1.4.4.9.6 2.2.3 2.8-.6.6-.9.3-2.2-.6-2.8-1.1-.7-2.3-1.1-3.6-1.1-3.6 0-6.5 2.9-6.5 6.5 0 2.7 1.7 5.2 4.3 6.1.2.1.5.1.7.1.8 0 1.6-.5 1.9-1.3.4-1-.2-2.2-1.2-2.6-1-.4-1.7-1.3-1.7-2.4-.1-1.2 1.1-2.3 2.5-2.3zM80.1 20c0 9.2-14.1 34-15.7 36.8-.4.6-1 1-1.7 1s-1.4-.4-1.7-1c0 0-1.1-1.8-2.6-4.7-.5-1-.2-2.2.8-2.7s2.2-.2 2.7.8c.3.6.6 1.1.8 1.5C67.6 42.8 76.1 26 76.1 20c0-7.8-6-14.1-13.4-14.1-3.8 0-7.4 1.7-10 4.7-.7.8-2 .9-2.8.2-.8-.7-.9-2-.2-2.8 3.3-3.9 8-6.1 13-6.1 9.5 0 17.4 8.2 17.4 18.1zm-16.6 2.7c-1 .4-1.6 1.5-1.2 2.6.3.8 1.1 1.3 1.9 1.3.2 0 .5 0 .7-.1 2.6-.9 4.3-3.4 4.3-6.1 0-3.6-2.9-6.5-6.5-6.5-1.3 0-2.5.4-3.6 1.1-.9.6-1.2 1.8-.6 2.8.6.9 1.8 1.2 2.8.6.4-.3.9-.4 1.4-.4 1.4 0 2.5 1.1 2.5 2.5 0 .9-.7 1.8-1.7 2.2zM40 77.9c-.7 0-1.4-.4-1.7-1C37.5 75.6 19 43.7 19 32.5 19 20.7 28.4 11 40 11c11.5 0 20.9 9.6 20.9 21.5 0 11.2-18.4 43.1-19.2 44.4-.3.7-1 1-1.7 1zM40 15c-9.3 0-17 7.9-17 17.5 0 7.6 11 28.7 16.9 39.4 6-10.6 16.9-31.8 16.9-39.4C56.9 22.9 49.3 15 40 15zm0 25.7c-4.2 0-7.6-3.5-7.6-7.8s3.4-7.8 7.6-7.8c4.2 0 7.6 3.5 7.6 7.8s-3.4 7.8-7.6 7.8zm0-11.6c-2 0-3.6 1.7-3.6 3.8 0 2.1 1.6 3.8 3.6 3.8s3.6-1.7 3.6-3.8c0-2.1-1.6-3.8-3.6-3.8z"/></svg>