<svg xmlns="http://www.w3.org/2000/svg" viewBox="0 0 80 80"><path d="M24 66c0 1.1-.9 2-2 2s-2-.9-2-2 .9-2 2-2 2 .9 2 2zm-2-14c-1.1 0-2 .9-2 2s.9 2 2 2 2-.9 2-2-.9-2-2-2zm0-12c-1.1 0-2 .9-2 2s.9 2 2 2 2-.9 2-2-.9-2-2-2zm0-8c1.1 0 2-.9 2-2s-.9-2-2-2-2 .9-2 2 .9 2 2 2zM66 0h-7.8H14c-3.3 0-6 2.7-6 6v68c0 3.3 2.7 6 6 6h52c3.3 0 6-2.7 6-6V6c0-3.3-2.7-6-6-6zM55.1 4l-2.5 6H27.4L25 4h30.1zM68 74c0 1.1-.9 2-2 2H14c-1.1 0-2-.9-2-2V6c0-1.1.9-2 2-2h6.7l3.6 8.8c.3.8 1 1.2 1.9 1.2h27.9c.8 0 1.5-.5 1.8-1.2L59.5 4H66c1.1 0 2 .9 2 2v68zm-8-8c0 1.1-.9 2-2 2H30c-1.1 0-2-.9-2-2s.9-2 2-2h28c1.1 0 2 .9 2 2zm-2-14H30c-1.1 0-2 .9-2 2s.9 2 2 2h28c1.1 0 2-.9 2-2s-.9-2-2-2zm0-12H30c-1.1 0-2 .9-2 2s.9 2 2 2h28c1.1 0 2-.9 2-2s-.9-2-2-2zm-28-8h28c1.1 0 2-.9 2-2s-.9-2-2-2H30c-1.1 0-2 .9-2 2s.9 2 2 2z"/></svg>
