<svg xmlns="http://www.w3.org/2000/svg" viewBox="0 0 80 80"><path d="M60 38H20c-1.1 0-2-.9-2-2V16.4C18 7.2 25.4 0 34.9 0h10.2C54.6 0 62 7.2 62 16.3V36c0 1.1-.9 2-2 2zm-38-4h36V16.3C58 9.4 52.4 4 45.2 4H34.9C27.7 4 22 9.5 22 16.4V34zm44 46H14c-3.3 0-6-2.7-6-6V40c0-3.3 2.7-6 6-6h52c3.3 0 6 2.7 6 6v34c0 3.3-2.7 6-6 6zM14 38c-1.1 0-2 .9-2 2v34c0 1.1.9 2 2 2h52c1.1 0 2-.9 2-2V40c0-1.1-.9-2-2-2H14zm30.4 21.9c1.3-1.2 2.1-2.9 2.1-4.7 0-1.9-.9-3.7-2.3-4.9-1.5-1.3-3.6-1.7-5.5-1.3-2.5.5-4.4 2.5-5 4.9-.5 2.2.2 4.5 1.9 6 .1.1.1.1 0 .2-.5 1-.6 2.1-.3 3.1.4 1.7 1.9 3.1 3.6 3.5.4.1.7.1 1.1.1 1.1 0 2.2-.4 3.1-1.1 1.1-.9 1.8-2.3 1.8-3.7 0-.7-.2-1.4-.5-2.1-.1.1 0 0 0 0z"/></svg>
