<svg xmlns="http://www.w3.org/2000/svg" viewBox="0 0 80 80"><path d="M75.7 64c-.4 0-.9-.1-1.3-.2L65.2 61c-2.9-.9-5.2-4.1-5.2-7.1V42.1c0-3.1 2.2-6.3 5-7.1l9.5-2.8c1.3-.4 2.6-.2 3.7.5 1.2.9 1.9 2.5 1.9 4.5v21.5c0 1.9-.7 3.5-1.9 4.4-.8.6-1.6.9-2.5.9zm.1-28h-.2l-9.5 2.8c-.9.3-2.1 1.8-2.1 3.3v11.8c0 1.4 1.3 3 2.4 3.3l9.1 2.8h.2s.3-.4.3-1.2V37.3c0-.7-.1-1.1-.2-1.3zm-.7-1.9zM52.1 72H6c-3.3 0-6-2.7-6-6V38c0-3.3 2.7-6 6-6h45.9c3.4 0 6.1 2.7 6.1 6.1v28c0 3.2-2.7 5.9-5.9 5.9zM6 36c-1.1 0-2 .9-2 2v28c0 1.1.9 2 2 2h46.1c1.1 0 1.9-.9 1.9-1.9v-28c0-1.2-.9-2.1-2.1-2.1H6zm9-6C8.9 30 4 25.1 4 19S8.9 8 15 8s11 4.9 11 11-4.9 11-11 11zm0-18c-3.9 0-7 3.2-7 7s3.1 7 7 7 7-3.1 7-7c0-3.8-3.1-7-7-7zm28 18c-6.1 0-11-4.9-11-11S36.9 8 43 8s11 4.9 11 11-4.9 11-11 11zm0-18c-3.9 0-7 3.2-7 7s3.1 7 7 7 7-3.1 7-7c0-3.8-3.1-7-7-7z"/></svg>
