<svg xmlns="http://www.w3.org/2000/svg" viewBox="0 0 80 80"><path d="M16 14c0 1.1-.9 2-2 2s-2-.9-2-2 .9-2 2-2 2 .9 2 2zm5-2c-1.1 0-2 .9-2 2s.9 2 2 2 2-.9 2-2-.9-2-2-2zm7 0c-1.1 0-2 .9-2 2s.9 2 2 2 2-.9 2-2-.9-2-2-2zm40 36v18c0 1.1-.9 2-2 2H34c-1.1 0-2-.9-2-2V48c0-1.1.9-2 2-2h32c1.1 0 2 .9 2 2zM24 32H14c-1.1 0-2 .9-2 2.1v31.7c0 1.2.9 2.1 2 2.1h10c1.1 0 2-.9 2-2.1V34.2c0-1.2-.9-2.2-2-2.2zm42 0H34c-1.1 0-2 .9-2 2v4c0 1.1.9 2 2 2h32c1.1 0 2-.9 2-2v-4c0-1.1-.9-2-2-2zm0-12H14c-1.1 0-2 .8-2 1.7v2.6c0 .9.9 1.7 2 1.7h52c1.1 0 2-.8 2-1.7v-2.6c0-.9-.9-1.7-2-1.7zm8 60H6c-3.3 0-6-2.7-6-6V6c0-3.3 2.7-6 6-6h68c3.3 0 6 2.7 6 6v68c0 3.3-2.7 6-6 6zM6 4c-1.1 0-2 .9-2 2v68c0 1.1.9 2 2 2h68c1.1 0 2-.9 2-2V6c0-1.1-.9-2-2-2H6z"/></svg>