<svg xmlns="http://www.w3.org/2000/svg" viewBox="0 0 80 80"><path d="M54 63v3c0 1.1-.9 2-2 2H14c-1.1 0-2-.9-2-2v-3c0-1.1.9-2 2-2h38c1.1 0 2 .9 2 2zm12-14.2H14c-1.1 0-2 .9-2 2v3c0 1.1.9 2 2 2h52c1.1 0 2-.9 2-2v-3c0-1.2-.9-2-2-2zm0-12.3H14c-1.1 0-2 .9-2 2v3c0 1.1.9 2 2 2h52c1.1 0 2-.9 2-2v-3c0-1.1-.9-2-2-2zm0-12.3H14c-1.1 0-2 .9-2 2v3c0 1.1.9 2 2 2h52c1.1 0 2-.9 2-2v-3c0-1.1-.9-2-2-2zM14 19h24c1.1 0 2-.9 2-2v-3c0-1.1-.9-2-2-2H14c-1.1 0-2 .9-2 2v3c0 1.1.9 2 2 2zm60 61H6c-3.3 0-6-2.7-6-6V6c0-3.3 2.7-6 6-6h68c3.3 0 6 2.7 6 6v68c0 3.3-2.7 6-6 6zM6 4c-1.1 0-2 .9-2 2v68c0 1.1.9 2 2 2h68c1.1 0 2-.9 2-2V6c0-1.1-.9-2-2-2H6z"/></svg>