<svg xmlns="http://www.w3.org/2000/svg" viewBox="0 0 80 80"><path d="M67.9 15.8V23c0 1.1-.9 2-2 2s-2-.9-2-2v-5l-49 27.7c-.3.2-.6.3-1 .3-.7 0-1.4-.4-1.7-1-.5-1-.2-2.2.8-2.7L59.4 16H54c-1.1 0-2-.9-2-2s.9-2 2-2h10c2.1 0 3.9 1.7 3.9 3.8zM80 74V6c0-3.3-2.7-6-6-6H6C2.7 0 0 2.7 0 6v68c0 3.3 2.7 6 6 6h68c3.3 0 6-2.7 6-6zM74 4c1.1 0 2 .9 2 2v68c0 1.1-.9 2-2 2H6c-1.1 0-2-.9-2-2V6c0-1.1.9-2 2-2h68zM24 52H14c-1.1 0-2 .9-2 2v12c0 1.1.9 2 2 2h10c1.1 0 2-.9 2-2V54c0-1.1-.9-2-2-2zm23-8v22c0 1.1-.9 2-2 2H35c-1.1 0-2-.9-2-2V44c0-1.1.9-2 2-2h10c1.1 0 2 .9 2 2zm21-10v32c0 1.1-.9 2-2 2H56c-1.1 0-2-.9-2-2V34c0-1.1.9-2 2-2h10c1.1 0 2 .9 2 2z"/></svg>