<svg xmlns="http://www.w3.org/2000/svg" viewBox="0 0 80 80"><path d="M74 80H6c-3.3 0-6-2.7-6-6V6c0-3.3 2.7-6 6-6h68c3.3 0 6 2.7 6 6v68c0 3.3-2.7 6-6 6zM6 4c-1.1 0-2 .9-2 2v68c0 1.1.9 2 2 2h68c1.1 0 2-.9 2-2V6c0-1.1-.9-2-2-2H6zm35.6 66.5h-.4c-1.5-.1-2.8-.8-3.8-2L12.6 39.3c-.3-.4-.5-.8-.5-1.3L12 14.8c0-1.6.7-3 1.8-4 1.2-1 2.7-1.4 4.2-1.2l22.7 3.8c.5.1.9.3 1.2.7l24.7 29.2c2 2.3 1.7 5.8-.5 7.8l-21 18.1c-1 .8-2.2 1.3-3.5 1.3zm-1.2-4.6c.3.3.7.5 1.1.6.4 0 .7-.1 1-.3l21-18.2c.6-.5.7-1.5.1-2.2L39.4 17.2l-22-3.7c-.5-.1-.8.1-1 .3-.2.1-.4.4-.4 1l.2 22.6 24.2 28.5zM24.6 29.8h-.5c-1.6-.1-3.1-.9-4.1-2.1-1-1.2-1.5-2.8-1.4-4.4.1-1.6.9-3.1 2.1-4.1 1.2-1 2.8-1.6 4.4-1.4 1.6.1 3.1.9 4.1 2.1s1.5 2.8 1.4 4.4c-.1 1.6-.9 3.1-2.1 4.1-1.1.9-2.4 1.4-3.9 1.4zm2.6-3zm-2.6-5c-.5 0-.9.2-1.3.5s-.7.8-.7 1.4.1 1 .5 1.5.8.7 1.4.7c.5 0 1-.1 1.5-.5.4-.3.7-.8.7-1.4 0-.5-.1-1-.5-1.5s-.8-.7-1.4-.7h-.2zm34.1 24.4L48 33.6c-.3-.4-.8-.5-1.2-.2l-3.2 1.8c-.3.1-.4.4-.5.7-.1.3 0 .6.2.8l3.2 3.7-13.9 7.8c-.3.1-.4.4-.5.7s0 .6.2.8l2.8 3.3c.2.2.5.3.8.3.2 0 .3 0 .5-.1l14.2-8 3.4 4c.3.4.8.5 1.2.2l3.2-1.8c.3-.1.4-.4.5-.7.1-.2 0-.5-.2-.7z"/></svg>