<svg xmlns="http://www.w3.org/2000/svg" viewBox="0 0 80 80"><path d="M74.1 76h-22c-1.1 0-2-.9-2-2s.9-2 2-2h22c.5 0 1-.2 1.3-.5.4-.4.6-.8.6-1.3V30H4v40.2c0 1 .8 1.8 1.8 1.8H28c1.1 0 2 .9 2 2s-.9 2-2 2H5.8C2.6 76 0 73.4 0 70.2V28c0-1.1.9-2 2-2h76c1.1 0 2 .9 2 2v42.1c0 1.6-.6 3.1-1.7 4.2S75.7 76 74.1 76zM78 24c-1.1 0-2-.9-2-2v-3.9c0-1.2-.9-2.1-2.1-2.1H29.7c-.7 0-1.3-.3-1.7-.9l-4-6.2c-.4-.6-1-.9-1.7-.9H6c-1.1 0-2 .9-2 2v12c0 1.1-.9 2-2 2s-2-.9-2-2V10c0-3.3 2.7-6 6-6h16.3c2 0 3.9 1 5 2.7l3.5 5.3h43.1c3.4 0 6.1 2.7 6.1 6.1V22c0 1.1-.9 2-2 2zM54.4 55.4c-.4.4-.9.6-1.4.6-.5 0-1-.2-1.4-.6L42 45.8V78c0 1.1-.9 2-2 2s-2-.9-2-2V45.8l-9.6 9.6c-.8.8-2 .8-2.8 0-.8-.8-.8-2 0-2.8l11.2-11.2c.9-.9 2-1.4 3.3-1.4 1.2 0 2.4.5 3.3 1.4l11.1 11.2c.7.8.7 2-.1 2.8z"/></svg>