<svg xmlns="http://www.w3.org/2000/svg" viewBox="0 0 80 80"><path d="M67 63c0 1.1-.9 2-2 2h-4v4c0 1.1-.9 2-2 2s-2-.9-2-2v-4h-4c-1.1 0-2-.9-2-2s.9-2 2-2h4v-4c0-1.1.9-2 2-2s2 .9 2 2v4h4c1.1 0 2 .9 2 2zm9 0c0 9.4-7.6 17-17 17s-17-7.6-17-17 7.6-17 17-17 17 7.6 17 17zm-4 0c0-7.2-5.8-13-13-13s-13 5.8-13 13 5.8 13 13 13 13-5.8 13-13zM64 0H21.2C21 0 4 .4 4 20s16.8 20 17 20h13v38c0 1.1.9 2 2 2s2-.9 2-2V4h9v38c0 1.1.9 2 2 2s2-.9 2-2V4h13c1.1 0 2-.9 2-2s-.9-2-2-2zM34 36H21s-3.4-.1-6.6-2.1C10.2 31.3 8 26.6 8 20 8 4.4 20.7 4 21.2 4H34v32z"/></svg>