<svg xmlns="http://www.w3.org/2000/svg" viewBox="0 0 80 80"><path d="M53.7 50.7v3.2h7.2V57h-7.2v6.9h-3.4V47.5h11.3v3.2h-7.9zM47.1 54c.1.6.1 1.2.1 1.7s0 1-.1 1.6c-.1.5-.2 1.1-.3 1.6-.2.5-.4 1.1-.6 1.5-.3.5-.6 1-1 1.4-.4.4-.8.8-1.3 1.1-.5.3-.9.5-1.5.6l-1.5.3c-.5 0-1 .1-1.5.1h-5.9V47.5H40.6c.4 0 .9.1 1.3.2s.9.2 1.3.4.8.4 1.2.7c.6.4 1.1 1 1.5 1.6.3.6.6 1.2.8 1.8.2.5.3 1.2.4 1.8zm-3.3 1.7c0-.5 0-1-.1-1.5s-.2-.9-.3-1.3c-.1-.4-.4-.8-.6-1.1-.2-.3-.5-.5-.9-.7-.3-.2-.7-.3-1.2-.3-.5-.1-1.1-.1-1.7-.1h-2.3v10.1H39c.6 0 1.1 0 1.6-.1.4-.1.9-.2 1.3-.4s.6-.4.8-.7c.2-.3.4-.7.6-1.1.2-.4.3-.9.3-1.3.2-.6.2-1.1.2-1.5zm-13.5-5c.2.6.2 1.2.2 1.8 0 1-.2 1.8-.6 2.5-.4.7-1 1.2-1.6 1.6-.6.4-1.3.6-2.1.7-.7.1-1.4.2-2.2.2h-2.1v6.4h-3.4V47.5h6.3c1 0 1.9.1 2.6.4.8.3 1.4.6 1.8 1.1.6.5.9 1.1 1.1 1.7zm-3.1 1.7c0-.8-.3-1.1-.5-1.3-.3-.2-.9-.5-2.2-.5H22v3.7h2c.6 0 1.1 0 1.6-.1.4-.1.7-.2.9-.3.2-.1.3-.3.5-.5.1-.1.2-.4.2-1zm42.3-27.7L47.9.7C47.6.2 47 0 46.5 0H12c-1.1 0-2 .9-2 2v76c0 1.1.9 2 2 2h56c1.1 0 2-.9 2-2V26.1c0-.5-.2-1-.5-1.4zm-3.9 1.7l-13.2-.2c-3.3-.1-6-2.6-6.2-5.9L45.5 4h.1l20 22.4zM14 76V4h27.5l.7 16.4c.4 5.4 4.7 9.6 10.2 9.7l13.6.3V76H14z"/></svg>