<svg xmlns="http://www.w3.org/2000/svg" viewBox="0 0 80 80"><path d="M51.2 80h-4.3c-1.7 0-3.1-1.4-3.1-3.1v-2.8l-3.5-1.5-1.8 1.8c-1.2 1.2-3.3 1.3-4.5 0l-2.3-2.3c-.6-.6-.9-1.4-.9-2.3s.3-1.7.9-2.3l1.8-1.8-1.5-3.6h-2.8c-1.8 0-3.1-1.3-3.1-3.1v-4.3c0-1.4 1.3-3.1 3.1-3.1H32l1.5-3.5-1.8-1.8c-.6-.6-.9-1.4-.9-2.3 0-.9.3-1.7.9-2.3l2.3-2.3c1.2-1.2 3.3-1.3 4.5 0l1.8 1.8 3.6-1.5v-3.1c0-1.6 1.2-2.7 2.8-2.7h4.9c1.6 0 2.8 1.3 2.8 2.8v3l3.5 1.5 1.8-1.8c1.3-1.2 3.3-1.2 4.5 0l2.3 2.3c1.2 1.2 1.2 3.3 0 4.5L64.7 48l1.5 3.6H69c1.7 0 3.1 1.4 3.1 3.1V59c0 1.7-1.4 3.1-3.1 3.1h-2.8l-1.5 3.5 1.8 1.8c.6.6.9 1.4.9 2.3 0 .9-.3 1.7-.9 2.3l-2.3 2.3c-.6.6-1.4.9-2.3.9-.9 0-1.7-.3-2.3-.9l-1.8-1.8-3.5 1.5v2.8c-.1 1.8-1.4 3.2-3.1 3.2zm-3.4-4h2.5v-2c0-1.6.9-3 2.3-3.4l3.8-1.6c1.3-.7 3.1-.4 4.1.7l1.4 1.5 1.2-1.2-1.5-1.5c-1.1-1.1-1.3-2.9-.7-4.2l1.6-3.7c.5-1.4 1.8-2.3 3.4-2.3H68v-2.5h-2.1c-1.6 0-3-.9-3.4-2.3l-1.6-3.8c-.7-1.3-.4-3.1.7-4.1l1.5-1.4-1.2-1.2-1.5 1.5c-1.1 1.1-2.9 1.3-4.2.7l-3.7-1.6c-1.4-.5-2.3-1.8-2.3-3.4v-2h-2.5v2c0 1.6-.9 3-2.3 3.4l-3.8 1.6c-1.3.7-3.1.4-4.1-.7L36.1 43l-1.2 1.2 1.5 1.5c1.1 1.1 1.3 2.8.7 4.2l-1.6 3.7c-.5 1.4-1.8 2.3-3.4 2.3H30v2.5h2.1c1.6 0 3 .9 3.4 2.3l1.6 3.8c.7 1.3.4 3.1-.7 4.1L35 69.9l1.2 1.2 1.5-1.5c1.1-1.1 2.9-1.3 4.2-.7l3.7 1.6c1.4.5 2.3 1.8 2.3 3.4V76zm15.8-6.7zm-29.2 0zM64.5 66zm-35.4-7.8zm0-2.4zm39.8 0zm-36.8-4zm1.5-3.4zm-.1-.4zm.9-3.3zm0-1.1zm5.5-2.1zm7.9-4.8c0 .1 0 0 0 0zM49 66.2c-5.1 0-9.2-4.1-9.2-9.2s4.1-9.2 9.2-9.2 9.2 4.1 9.2 9.2-4.1 9.2-9.2 9.2zm0-14.4c-2.9 0-5.2 2.3-5.2 5.2s2.3 5.2 5.2 5.2c2.9 0 5.2-2.3 5.2-5.2s-2.3-5.2-5.2-5.2zm8.5-30.9L39.8.7c-.4-.5-.9-.7-1.5-.7H10C8.9 0 8 .9 8 2v64c0 1.1.9 2 2 2h12c1.1 0 2-.9 2-2s-.9-2-2-2H12V4h21.8l.6 13.5c.3 4.7 4 8.4 8.7 8.4l10.9.3V30c0 1.1.9 2 2 2s2-.9 2-2v-7.7c0-.5-.2-1-.5-1.4zm-19.1-3.6l-.5-12.7 15.4 17.6-10.1-.2c-2.6-.1-4.6-2.1-4.8-4.7z"/></svg>