<svg xmlns="http://www.w3.org/2000/svg" viewBox="0 0 80 80"><path d="M50.7 80h-.4c-1.3-.1-2.5-.7-3.3-1.7L27.6 54.7c-.3-.4-.5-.8-.5-1.3L27 34.6c0-1.4.6-2.7 1.6-3.6 1-.9 2.3-1.2 3.6-1l17.9 3c.5.1.9.3 1.2.7l19.5 23.5c1.7 2 1.5 5.1-.5 6.8L53.8 78.8c-.9.8-1.9 1.2-3.1 1.2zM31.1 52.7l19 23c.2.2.4.3.6.3.1 0 .3 0 .5-.2l16.6-14.7c.3-.3.3-.9 0-1.3l-19-23L31.6 34c-.1 0-.3 0-.4.1-.1.1-.2.2-.2.5l.1 18.1zm6.3-6.2H37c-1.3-.1-2.5-.7-3.4-1.7-1.8-2.1-1.5-5.3.5-7 1-.9 2.3-1.3 3.6-1.2 1.3.1 2.5.7 3.4 1.7 1.8 2.1 1.5 5.3-.5 7-.8.8-2 1.2-3.2 1.2zm2-2.7zm-2-3.3c-.2 0-.4 0-.6.2-.4.4-.5 1-.1 1.4.2.3.5.3.7.3.2 0 .4 0 .7-.2.4-.4.5-1 .1-1.4-.3-.2-.5-.3-.8-.3.1 0 .1 0 0 0zm20.1-19.6L39.8.7c-.4-.5-.9-.7-1.5-.7H10C8.9 0 8 .9 8 2v64c0 1.1.9 2 2 2h12c1.1 0 2-.9 2-2s-.9-2-2-2H12V4h21.9l.6 13.5c.3 4.7 4 8.4 8.7 8.4l10.8.3V30c0 1.1.9 2 2 2s2-.9 2-2v-7.7c0-.5-.2-1-.5-1.4zm-19.1-3.6l-.5-12.7 15.4 17.6-10.1-.2c-2.6-.1-4.6-2.1-4.8-4.7z"/></svg>