<svg xmlns="http://www.w3.org/2000/svg" viewBox="0 0 80 80"><path d="M76.9 51.8h-2.8l-1.5-3.6 1.8-1.8c1.2-1.2 1.2-3.3 0-4.5l-2.3-2.3c-1.2-1.2-3.3-1.2-4.5 0l-1.8 1.8-3.5-1.5v-3c0-1.6-1.3-2.8-2.8-2.8h-4.9c-1.6 0-2.8 1.2-2.8 2.7v3.1l-3.6 1.5-1.8-1.8c-1.2-1.2-3.3-1.2-4.5 0l-2.3 2.3c-.6.6-.9 1.4-.9 2.3 0 .9.3 1.7.9 2.3l1.8 1.8-1.5 3.5h-2.8c-1.8 0-3.1 1.6-3.1 3.1v4.3c0 1.8 1.3 3.1 3.1 3.1h2.8l1.5 3.6-1.8 1.8c-.6.6-.9 1.4-.9 2.3s.3 1.7.9 2.3l2.3 2.3c1.3 1.2 3.3 1.2 4.5 0l1.8-1.8 3.5 1.5v2.8c0 1.7 1.4 3.1 3.1 3.1h4.3c1.7 0 3.1-1.4 3.1-3.1v-2.8l3.5-1.5 1.8 1.8c.6.6 1.4.9 2.3.9.9 0 1.7-.3 2.3-.9l2.3-2.3c.6-.6.9-1.4.9-2.3 0-.9-.3-1.7-.9-2.3l-1.8-1.8 1.5-3.5h2.8c1.7 0 3.1-1.4 3.1-3.1V55c0-1.9-1.4-3.2-3.1-3.2zm-.9 6.4h-2.1c-1.6 0-3 .9-3.4 2.3l-1.6 3.7c-.7 1.3-.4 3.1.7 4.2l1.5 1.5-1.2 1.2-1.4-1.5c-1.1-1.1-2.8-1.3-4.1-.7l-3.8 1.6c-1.4.5-2.3 1.8-2.3 3.4v2h-2.5v-2c0-1.6-.9-3-2.3-3.4l-3.7-1.6c-1.3-.7-3.1-.4-4.2.7l-1.5 1.5-1.1-1.2 1.5-1.5c1.1-1.1 1.3-2.8.7-4.1l-1.6-3.8c-.5-1.4-1.8-2.3-3.4-2.3h-2.1v-2.5h2.1c1.6 0 2.9-.9 3.4-2.3l1.6-3.7c.7-1.3.4-3.1-.7-4.2L43 44l1.2-1.2 1.4 1.5c1.1 1.1 2.8 1.3 4.1.7l3.8-1.6c1.4-.5 2.3-1.8 2.3-3.4v-2h2.5v2c0 1.6.9 3 2.3 3.4l3.7 1.6c1.3.7 3.1.4 4.2-.7l1.5-1.5 1.2 1.2-1.5 1.4c-1.1 1.1-1.3 2.8-.7 4.1l1.6 3.8c.5 1.4 1.8 2.3 3.4 2.3h2v2.6zM57 47.8c-5.1 0-9.2 4.1-9.2 9.2s4.1 9.2 9.2 9.2 9.2-4.1 9.2-9.2-4.1-9.2-9.2-9.2zm0 14.4c-2.9 0-5.2-2.3-5.2-5.2s2.3-5.2 5.2-5.2c2.9 0 5.2 2.3 5.2 5.2s-2.3 5.2-5.2 5.2zM64 0H4C1.8 0 0 1.8 0 4v60c0 2.2 1.8 4 4 4h26c1.1 0 2-.9 2-2s-.9-2-2-2H4V16h60v14c0 1.1.9 2 2 2s2-.9 2-2V4c0-2.2-1.8-4-4-4zM4 12V4h60v8H4zm6-4c0 1.1-.9 2-2 2s-2-.9-2-2 .9-2 2-2 2 .9 2 2zm4.2-2c-1.1 0-2 .9-2 2s.9 2 2 2 2-.9 2-2-.8-2-2-2zm6.3 0c-1.1 0-2 .9-2 2s.9 2 2 2 2-.9 2-2-.9-2-2-2z"/></svg>