<svg xmlns="http://www.w3.org/2000/svg" viewBox="0 0 80 80"><path d="M78 80c-.5 0-1-.2-1.4-.6L52.8 55.6 31.1 77.2c-.8.8-2 .8-2.8 0-10.9-10.4-7.5-20-4.2-23.6.7-.8 2-.9 2.8-.1.8.7.9 2 .1 2.8-.3.3-6.1 7.1 2.6 16.6l21.7-21.5L72.5 30c-3.6-3.2-7-4.8-10.2-4.8-3.6 0-5.7 2.1-5.8 2.2-.8.8-2 .8-2.8 0-.8-.8-.8-2-.1-2.8.1-.1 3.2-3.3 8.5-3.4 4.8 0 9.7 2.4 14.7 7.3.8.8.8 2 0 2.8L55.6 52.8l23.8 23.8c.8.8.8 2 0 2.8-.4.4-.9.6-1.4.6zM15.5 39.1c-.7 0-1.4-.4-1.7-1l-2.4-4.2c-3.8 1.8-7.8-.1-9.9-3-2.3-3.2-2-7.1.7-9.8L16.4 6.9c1.8-1.9 3.5-3.5 4.7-4.7 2.7-2.7 6.6-3 9.8-.7 2.9 2.1 4.8 6.1 3 9.9l3.1 1.8c1 .6 1.3 1.8.7 2.7-.6 1-1.8 1.3-2.7.7l-3.2-1.8c-1.8-1-2.4-3.2-1.5-5 .9-1.8-.2-3.9-1.7-5-.8-.6-2.8-1.6-4.7.3-1.2 1.2-2.8 2.8-4.6 4.7L5.1 24c-1.9 1.8-.8 3.8-.3 4.6 1.1 1.5 3.1 2.6 4.9 1.7 1.8-.9 4.1-.3 5.1 1.5l2.5 4.3c.5 1 .2 2.2-.8 2.7-.3.2-.6.3-1 .3zm-12 28.5L64.7 3.7c.8-.8.7-2.1-.1-2.8-.8-.8-2.1-.7-2.8.1L.6 64.8c-.8.8-.7 2.1.1 2.8.3.4.8.6 1.3.6s1.1-.2 1.5-.6z"/></svg>