<svg xmlns="http://www.w3.org/2000/svg" viewBox="0 0 80 80"><path d="M40 80c-1.1 0-2-.9-2-2V50.5l-24.9-.1c-1.1 0-2-.9-2-2-.3-12.5 7.1-15.6 10.3-16.4l5.2-18.7c-3.2-1.3-4.4-4.8-3.9-7.8.6-3.3 3.1-5.5 6.4-5.5h22.3c3.3 0 6 2.3 6.5 5.7.5 2.9-.7 6.5-3.9 7.8l5.1 18.8c1.5.3 3.6 1 5.6 2.9 2.9 2.9 4.4 7.3 4.4 13.1 0 1.1-.9 2-2 2l-25.1.2V78c0 1.1-.9 2-2 2zM15.1 46.4l24.9.1h.1l24.9-.1c-.3-3.7-1.3-6.4-3.1-8.2-2-2-4.3-2-4.4-2-.9 0-1.7-.6-2-1.5L50 14.1c-.5-1.8.5-3.7 2.3-4.3 1.4-.5 1.9-2.1 1.7-3.5-.2-.9-.7-2.3-2.6-2.3H29.2c-1.9-.1-2.4 1.4-2.5 2.2-.2 1.4.3 3 1.7 3.5 1.8.6 2.8 2.5 2.3 4.3L25 34.3c-.2.8-1 1.4-1.8 1.5 0 0-2.1.1-4.1 1.7-2.4 1.8-3.7 4.8-4 8.9z"/></svg>
