<svg xmlns="http://www.w3.org/2000/svg" viewBox="0 0 80 80"><path d="M79.9 24.5v-.2L74.3 7.7C73.7 6.1 72.2 5 70.5 5h-61C7.7 5 6.2 6.1 5.7 7.7L.1 24.2c-.1.2-.1.5-.1.7V71c0 2.2 1.8 4 4 4h72c2.2 0 4-1.8 4-4V25c0-.2 0-.4-.1-.5zm-4.7-1.6c-4.3.1-13.3.1-23.6.1L48.5 9h22l4.7 13.9zM48 39.8l-7.1-3.5c-.5-.3-1.2-.3-1.7 0L32 39.8V27h16v12.8zM44.4 9l3.1 14h-15l3.1-14h8.8zM9.5 9h22l-3.1 14c-10.3 0-19.4-.1-23.6-.1L9.5 9zM4 71V26.8c3.2.1 9.8.1 24 .1v16c0 .7.4 1.3.9 1.7.6.4 1.3.4 1.9.1l9.1-4.4 9.1 4.4c.4.3.7.3 1 .3.4 0 .7-.1 1.1-.3.6-.4.9-1 .9-1.7V27h7.4c9.2 0 14 0 16.6-.1V71H4z"/></svg>
