<svg xmlns="http://www.w3.org/2000/svg" viewBox="0 0 80 80"><path d="M74 80H6c-3.3 0-6-2.7-6-6V10c0-3.3 2.7-6 6-6h6c1.1 0 2 .9 2 2s-.9 2-2 2H6c-1.1 0-2 .9-2 2v64c0 1.1.9 2 2 2h68c1.1 0 2-.9 2-2V10c0-1.1-.9-2-2-2h-4c-1.1 0-2-.9-2-2s.9-2 2-2h4c3.3 0 6 2.7 6 6v64c0 3.3-2.7 6-6 6zM54 6c0-1.1-.9-2-2-2H30c-1.1 0-2 .9-2 2s.9 2 2 2h22c1.1 0 2-.9 2-2zm22 26H4c-1.1 0-2-.9-2-2s.9-2 2-2h72c1.1 0 2 .9 2 2s-.9 2-2 2zM23 11.3V2c0-1.1-.9-2-2-2s-2 .9-2 2v9.3c-2.9.9-5 3.5-5 6.7 0 3.9 3.1 7 7 7s7-3.1 7-7c0-3.2-2.1-5.9-5-6.7zM21 21c-1.7 0-3-1.4-3-3s1.3-3 3-3 3 1.4 3 3-1.3 3-3 3zm42-9.7V2c0-1.1-.9-2-2-2s-2 .9-2 2v9.3c-2.9.9-5 3.5-5 6.7 0 3.9 3.1 7 7 7s7-3.1 7-7c0-3.2-2.1-5.9-5-6.7zM61 21c-1.7 0-3-1.4-3-3s1.3-3 3-3 3 1.4 3 3-1.3 3-3 3zm-8.6 45.4c-.4.4-.9.6-1.5.6-.5 0-1-.2-1.4-.6l-9.6-9.6-9.6 9.6c-.3.4-.8.6-1.4.6-.5 0-1-.2-1.4-.6-.8-.8-.8-2 0-2.8l9.6-9.6-9.5-9.5c-.8-.8-.8-2 0-2.8.8-.8 2-.8 2.8 0l9.5 9.5 9.5-9.5c.8-.8 2-.8 2.8 0 .8.8.8 2 0 2.8L42.8 54l9.6 9.6c.7.8.7 2 0 2.8z"/></svg>
