<svg xmlns="http://www.w3.org/2000/svg" viewBox="0 0 80 80"><path d="M74 80H6c-3.3 0-6-2.7-6-6V10c0-3.3 2.7-6 6-6h6c1.1 0 2 .9 2 2s-.9 2-2 2H6c-1.1 0-2 .9-2 2v64c0 1.1.9 2 2 2h68c1.1 0 2-.9 2-2V10c0-1.1-.9-2-2-2h-4c-1.1 0-2-.9-2-2s.9-2 2-2h4c3.3 0 6 2.7 6 6v64c0 3.3-2.7 6-6 6zM52 8H30c-1.1 0-2-.9-2-2s.9-2 2-2h22c1.1 0 2 .9 2 2s-.9 2-2 2zm24 24H4c-1.1 0-2-.9-2-2s.9-2 2-2h72c1.1 0 2 .9 2 2s-.9 2-2 2zM23 11.3V2c0-1.1-.9-2-2-2s-2 .9-2 2v9.3c-2.9.9-5 3.5-5 6.7 0 3.9 3.1 7 7 7s7-3.1 7-7c0-3.2-2.1-5.9-5-6.7zM21 21c-1.7 0-3-1.4-3-3s1.3-3 3-3 3 1.4 3 3-1.3 3-3 3zm40 4c-3.9 0-7-3.1-7-7s3.1-7 7-7 7 3.1 7 7-3.1 7-7 7zm0-10c-1.7 0-3 1.4-3 3s1.3 3 3 3 3-1.4 3-3-1.3-3-3-3zm0-2c-1.1 0-2-.9-2-2V2c0-1.1.9-2 2-2s2 .9 2 2v9c0 1.1-.9 2-2 2zM49.1 60.5c0 4.9-3.9 8.5-9.2 8.5-4.2 0-7.5-2.4-8.6-6.2-.3-1.1.3-2.2 1.3-2.5 1.1-.3 2.2.3 2.5 1.3.6 2.1 2.3 3.3 4.8 3.3 2.6 0 5.2-1.4 5.2-4.5 0-2.9-2.8-4.5-5.5-4.5H38c-1.1 0-2-.9-2-2s.9-2 2-2h1.8c2.6 0 5.4-1.6 5.4-4.5 0-2.7-2.1-4.5-5.1-4.5-2.4 0-4.2 1.2-4.8 3.3-.3 1.1-1.4 1.7-2.5 1.3-1.1-.3-1.7-1.4-1.3-2.5 1.1-3.8 4.5-6.1 8.6-6.1 5.2 0 9.1 3.7 9.1 8.5 0 2.7-1.3 5-3.4 6.5 2.1 1.7 3.3 4 3.3 6.6z"/></svg>