<svg xmlns="http://www.w3.org/2000/svg" viewBox="0 0 80 80"><path d="M28.9 70c-.5 0-1-.2-1.4-.6L10.6 52.7c-.7-.7-.8-1.8-.2-2.6 1-1.4 24.1-34.1 43.1-43.2C68.5-.4 77.7 0 78.1 0c1 0 1.8.8 1.9 1.8 0 .4.7 9.3-6.9 24.4-9.3 18.5-41.7 42.4-43 43.4-.4.3-.8.4-1.2.4zM14.6 51.1L29 65.4c6.3-4.8 32.6-25.4 40.5-41 5-10 6.2-17.1 6.4-20.3-3.3.3-10.6 1.5-20.8 6.4-15.9 7.7-35.9 34.2-40.5 40.6zM2.1 57.4c-.5 0-1-.2-1.4-.6-.6-.6-.7-1.4-.4-2.1L8 35.5c.3-.7 1-1.2 1.7-1.2l14.3-.9c1.1-.1 2 .8 2.1 1.9.1 1.1-.8 2-1.9 2.1l-13 .7L5.6 52l5-1.9c1-.4 2.2.1 2.6 1.2.4 1-.1 2.2-1.2 2.6l-9.3 3.5h-.6zM24.5 80c-.5 0-1-.2-1.4-.6-.6-.6-.8-1.4-.5-2.1l3.5-9.3c.4-1 1.5-1.6 2.6-1.2 1 .4 1.6 1.5 1.2 2.6l-1.9 5 13.9-5.6.6-12.9c.1-1.1 1-1.9 2.1-1.9 1.1.1 2 1 1.9 2.1l-.7 14.2c0 .8-.5 1.5-1.2 1.8l-19.3 7.8c-.3.1-.6.1-.8.1zm-22.4-.1c-.2 0-.3 0-.5-.1-1.1-.3-1.7-1.3-1.5-2.4.1-.3 1.5-6.4 5.3-13.6 2.2-4.2 4.1-5.4 4.6-5.6l1.7 3.6h.1s-1.2.8-2.9 3.9c-3.6 6.8-4.9 12.6-5 12.7-.1.9-.9 1.5-1.8 1.5zM2 80c-.9 0-1.7-.6-1.9-1.5-.3-1.1.4-2.2 1.5-2.4.1 0 6-1.4 12.8-5 3.2-1.7 3.9-2.9 3.9-2.9v.1l3.6 1.7c-.2.5-1.4 2.4-5.6 4.6C9 78.4 2.9 79.9 2.6 80c-.3-.1-.4 0-.6 0zm45.2-40.5c-1.8 0-3.6-.7-4.9-2-2.7-2.7-2.8-7.2 0-9.9 2.7-2.7 7.2-2.8 9.9 0 2.7 2.7 2.8 7.2 0 9.9-1.4 1.3-3.2 2-5 2zm0-12c-1.3 0-2.6.5-3.5 1.5-1.9 2-1.9 5.1 0 7.1 2 1.9 5.1 1.9 7.1 0 1.9-2 1.9-5.1 0-7.1-1.1-1-2.3-1.5-3.6-1.5zm4.2 9.5zm0-.3c-2.3 2.4-6.1 2.4-8.5 0-2.4-2.3-2.4-6.1 0-8.5s6.1-2.4 8.5 0 2.4 6.2 0 8.5z"/></svg>
