<svg xmlns="http://www.w3.org/2000/svg" viewBox="0 0 80 80"><path d="M68 9.4v24.7c0 1.1-.9 2-2 2s-2-.9-2-2V27H4v35.7c0 .7.6 1.3 1.4 1.3H34c1.1 0 2 .9 2 2s-.9 2-2 2H5.4c-3 0-5.4-2.4-5.4-5.3V9.3C0 6.4 2.4 4 5.4 4H8c1.1 0 2 .9 2 2s-.9 2-2 2H5.4C4.6 8 4 8.6 4 9.3V23h60V9.4c0-.8-.6-1.4-1.4-1.4h-2.8c-1.1 0-2-.9-2-2s.9-2 2-2h2.8c3 0 5.4 2.4 5.4 5.4zM24 8h20c1.1 0 2-.9 2-2s-.9-2-2-2H24c-1.1 0-2 .9-2 2s.9 2 2 2zm-8 26.7c0 1.7-1.3 3-3 3s-3-1.3-3-3 1.3-3 3-3 3 1.3 3 3zm8.3-3.1c-1.7 0-3 1.3-3 3s1.3 3 3 3 3-1.3 3-3-1.3-3-3-3zm11.4 0c-1.7 0-3 1.3-3 3s1.3 3 3 3 3-1.3 3-3-1.4-3-3-3zm11.3 0c-1.7 0-3 1.3-3 3s1.3 3 3 3 3-1.3 3-3-1.3-3-3-3zm-34 11c-1.7 0-3 1.3-3 3s1.3 3 3 3 3-1.3 3-3-1.4-3-3-3zm11.3 0c-1.7 0-3 1.3-3 3s1.3 3 3 3 3-1.3 3-3-1.3-3-3-3zm11.4 0c-1.7 0-3 1.3-3 3s1.3 3 3 3 3-1.3 3-3-1.4-3-3-3zM13 53.6c-1.7 0-3 1.3-3 3s1.3 3 3 3 3-1.3 3-3-1.4-3-3-3zm11.3 0c-1.7 0-3 1.3-3 3s1.3 3 3 3 3-1.3 3-3-1.3-3-3-3zM18 9.8V2c0-1.1-.9-2-2-2s-2 .9-2 2v7.8c-2.3.8-4 2.9-4 5.4 0 3.2 2.7 5.8 6 5.8s6-2.6 6-5.8c0-2.5-1.7-4.6-4-5.4zM16 17c-1.1 0-2-.8-2-1.8s.9-1.8 2-1.8 2 .8 2 1.8-.9 1.8-2 1.8zm38-7.2V2c0-1.1-.9-2-2-2s-2 .9-2 2v7.8c-2.3.8-4 2.9-4 5.5 0 3.2 2.7 5.8 6 5.8s6-2.6 6-5.8c0-2.6-1.7-4.7-4-5.5zM52 17c-1.1 0-2-.8-2-1.8s.9-1.8 2-1.8 2 .8 2 1.8-.9 1.8-2 1.8zm16 43c0 1.1-.9 2-2 2h-4c-.5.6-1.3.9-2.1.9-1.7 0-3-1.4-3-3 0-1 .5-1.8 1.2-2.4V50c0-1.1.9-2 2-2s2 .9 2 2v7.7c.1.1.1.2.2.3H66c1.1 0 2 .9 2 2zm12 0c0 11-9 20-20 20s-20-9-20-20 9-20 20-20 20 9 20 20zm-4 0c0-8.8-7.2-16-16-16s-16 7.2-16 16 7.2 16 16 16 16-7.2 16-16z"/></svg>