<svg xmlns="http://www.w3.org/2000/svg" viewBox="0 0 80 80"><path d="M73.3 34c-.2 0-.4 0-.6-.1l-15.3-4.7c-1.1-.3-1.7-1.4-1.3-2.5.3-1.1 1.4-1.6 2.5-1.3L72 29.5l4.1-12.2c.4-1 1.5-1.6 2.5-1.3 1 .4 1.6 1.5 1.3 2.5l-4.7 14c-.3 1-1.1 1.5-1.9 1.5zM37.7 77C16.9 77 0 60.4 0 40S16.9 3 37.7 3c16.7 0 31.6 11 36.2 26.8.3 1.1-.3 2.2-1.4 2.5-1.1.3-2.2-.3-2.5-1.4C65.9 16.8 52.6 7 37.7 7 19.1 7 4 21.8 4 40s15.1 33 33.7 33c15 0 28.3-9.9 32.4-24 .3-1.1 1.4-1.7 2.5-1.4 1.1.3 1.7 1.4 1.4 2.5C69.3 66 54.4 77 37.7 77z"/></svg>