<svg xmlns="http://www.w3.org/2000/svg" viewBox="0 0 80 80"><path d="M74 43v12c0 1.1-.9 2-2 2s-2-.9-2-2V45H42v10c0 1.1-.9 2-2 2s-2-.9-2-2V45H10v10c0 1.1-.9 2-2 2s-2-.9-2-2V43c0-1.1.9-2 2-2h30V27c0-1.1.9-2 2-2s2 .9 2 2v14h30c1.1 0 2 .9 2 2zM18 77c0 1.1-.9 2-2 2H2c-1.1 0-2-.9-2-2V63c0-1.1.9-2 2-2h14c1.1 0 2 .9 2 2v14zm31-14c0-1.1-.9-2-2-2H33c-1.1 0-2 .9-2 2v14c0 1.1.9 2 2 2h14c1.1 0 2-.9 2-2V63zm31 0c0-1.1-.9-2-2-2H64c-1.1 0-2 .9-2 2v14c0 1.1.9 2 2 2h14c1.1 0 2-.9 2-2V63zM50 3c0-1.1-.9-2-2-2H32c-1.1 0-2 .9-2 2v16c0 1.1.9 2 2 2h16c1.1 0 2-.9 2-2V3z"/></svg>
