<svg xmlns="http://www.w3.org/2000/svg" viewBox="0 0 80 80"><path d="M79.9 19.5l-4.3 16c-.1.5-.5 1-1 1.3-.2.1-.6.2-.9.2-.2 0-.5 0-.7-.1l-13.7-5.3c-1-.4-1.5-1.6-1.1-2.6.4-1 1.6-1.5 2.6-1.1l9.6 3.7C66.2 17.7 53.9 8 40 8 25.1 8 12.1 19.1 9 34.4c-.2 1.1-1.3 1.8-2.4 1.6-1.1-.2-1.8-1.3-1.6-2.4C8.5 16.4 23.2 4 40 4c15 0 28.3 9.9 33.5 24.3l2.6-9.8c.3-1.1 1.4-1.7 2.4-1.4 1.1.2 1.7 1.3 1.4 2.4zm-6.5 24.6c-1.1-.2-2.1.5-2.4 1.6C67.9 60.9 54.9 72 40 72c-13.9 0-26.2-9.7-30.3-23.5l9.6 3.7c1 .4 2.2-.1 2.6-1.1s-.1-2.2-1.1-2.6L7 43.2c-.5-.2-1.1-.2-1.6 0-.5.3-.9.7-1 1.3l-4.3 16c-.3 1.1.4 2.2 1.4 2.4.2.1.3.1.5.1.9 0 1.7-.6 1.9-1.5l2.6-9.8C11.7 66.1 25 76 40 76c16.8 0 31.5-12.4 35-29.6.2-1.1-.5-2.1-1.6-2.3z"/></svg>
