<svg xmlns="http://www.w3.org/2000/svg" viewBox="0 0 80 80"><path d="M39.1 42.7c-.2 1.1-1.2 1.8-2.3 1.6-2-.3-3.3-.3-3.3-.3H25c-.1 0-6.9-.2-10.7 5.1-2 2.8-5.6 14.8-7.4 22-.2.7-.3 1.7-.3 2 0 .1 0 .2-.1.4-.2.7 0 1.4.4 1.9.4.4.8.6 1.2.6H33c1.1 0 2 .9 2 2s-.9 2-2 2H8.1c-1.7 0-3.3-.8-4.3-2.2-1.1-1.5-1.5-3.4-1.1-5.2 0-.4.2-1.6.4-2.5 1.1-4.7 5.1-19.3 8-23.3 5.1-7.1 13.7-6.8 14.1-6.8h8.3s1.6 0 4 .4c1.1.1 1.8 1.2 1.6 2.3zM49.5 19c0 10.5-8.5 19-19 19s-19-8.5-19-19S20 0 30.5 0c10.4 0 19 8.5 19 19zm-4 0c0-8.3-6.7-15-15-15s-15 6.7-15 15 6.7 15 15 15c8.2 0 15-6.7 15-15zm12 21c-11 0-20 9-20 20s9 20 20 20 20-9 20-20-9-20-20-20zm0 36c-8.8 0-16-7.2-16-16s7.2-16 16-16 16 7.2 16 16-7.2 16-16 16zm9.6-20.8l-8.5 11.3c-.7.9-1.6 1.4-2.6 1.5h-.2c-1 0-1.8-.3-2.5-.9l-5.1-4.5c-.8-.7-.9-2-.2-2.8.7-.8 2-.9 2.8-.2l4.8 4.3 8.2-11.1c.7-.9 1.9-1.1 2.8-.4.9.7 1.1 1.9.5 2.8z"/></svg>