<svg xmlns="http://www.w3.org/2000/svg" viewBox="0 0 80 80"><path d="M79.9 75.6c0 1.1-.9 2-2 2s-2-.9-2-2c0-21.2-6.2-38.1-18.5-50.3C36.4 4.3 4.6 4.1 4.1 4.1c-1.1 0-2-.9-2-2s.9-2 2-2c1.7 0 34 .3 56.1 22.3 13.1 13.1 19.7 31 19.7 53.2zM34.4 23c-14.9-7.4-29.6-7.5-30.2-7.5-1.1 0-2 .9-2 2s.9 2 2 2c.1 0 14.3.1 28.4 7.1 18.7 9.3 28.2 25.9 28.2 49.3 0 1.1.9 2 2 2s2-.9 2-2c0-31.2-16.6-46-30.4-52.9zm-7.7 11.1c-11.2-5.8-22.2-5.9-22.6-5.9-1.1 0-2 .9-2 2s.9 2 2 2c.1 0 10.5.1 20.8 5.4 13.7 7.2 20.6 19.9 20.6 37.9 0 1.1.9 2 2 2s2-.9 2-2c0-24.3-12.4-35.9-22.8-41.4zm-.9 18.7C16.9 44.6 4.5 45.4 4 45.4c-1.1.1-1.9 1-1.9 2.1.1 1.1 1.1 1.9 2.1 1.9.1 0 11.2-.7 18.8 6.4 4.8 4.5 7.2 11.2 7.2 19.8 0 1.1.9 2 2 2s2-.9 2-2c.1-9.8-2.8-17.5-8.4-22.8zm-16 7.4c-5.5 0-10 4.5-10 10s4.5 10 10 10 10-4.5 10-10-4.4-10-10-10z"/></svg>
