<svg xmlns="http://www.w3.org/2000/svg" viewBox="0 0 80 80"><path d="M52 20h-6V6h6v14zm28-3.3V74c0 3.3-2.7 6-6 6H6c-3.3 0-6-2.7-6-6V6c0-3.3 2.7-6 6-6h57.1c1.1 0 2.1.4 2.8 1.2l12.9 12.7c.8.7 1.2 1.7 1.2 2.8zm-56 4.7c0 1.2.9 2.6 2.1 2.6h26.5c1.9 0 3.4-2 3.4-3.7V4H24v17.4zM64 76V45.8c0-1-.9-1.8-2.1-1.8H18c-1.1 0-2 .8-2 1.8V76h48zm12-59.3L63.1 4H60v16.3c0 4.1-3.5 7.7-7.4 7.7H26.1c-3.7 0-6.1-3.4-6.1-6.6V4H6c-1.1 0-2 .9-2 2v68c0 1.1.9 2 2 2h6V45.8c0-3.2 2.7-5.8 6-5.8h44c3.3 0 6.1 2.6 6.1 5.8V76h6c1.1 0 2-.9 2-2V16.7z"/></svg>
