<svg xmlns="http://www.w3.org/2000/svg" viewBox="0 0 80 80"><path d="M74 80H6c-3.3 0-6-2.7-6-6V10c0-3.3 2.7-6 6-6h6c1.1 0 2 .9 2 2s-.9 2-2 2H6c-1.1 0-2 .9-2 2v64c0 1.1.9 2 2 2h68c1.1 0 2-.9 2-2V10c0-1.1-.9-2-2-2h-4c-1.1 0-2-.9-2-2s.9-2 2-2h4c3.3 0 6 2.7 6 6v64c0 3.3-2.7 6-6 6zM52 8H30c-1.1 0-2-.9-2-2s.9-2 2-2h22c1.1 0 2 .9 2 2s-.9 2-2 2zm24 24H4c-1.1 0-2-.9-2-2s.9-2 2-2h72c1.1 0 2 .9 2 2s-.9 2-2 2zM23 11.3V2c0-1.1-.9-2-2-2s-2 .9-2 2v9.3c-2.9.9-5 3.5-5 6.7 0 3.9 3.1 7 7 7s7-3.1 7-7c0-3.2-2.1-5.9-5-6.7zM21 21c-1.7 0-3-1.4-3-3s1.3-3 3-3 3 1.4 3 3-1.3 3-3 3zm42-9.7V2c0-1.1-.9-2-2-2s-2 .9-2 2v9.3c-2.9.9-5 3.5-5 6.7 0 3.9 3.1 7 7 7s7-3.1 7-7c0-3.2-2.1-5.9-5-6.7zM61 21c-1.7 0-3-1.4-3-3s1.3-3 3-3 3 1.4 3 3-1.3 3-3 3zM17 41c0 2.2-1.8 4-4 4s-4-1.8-4-4 1.8-4 4-4 4 1.8 4 4zm9.5-4c-2.2 0-4 1.8-4 4s1.8 4 4 4 4-1.8 4-4-1.8-4-4-4zM40 37c-2.2 0-4 1.8-4 4s1.8 4 4 4 4-1.8 4-4-1.8-4-4-4zm13.5 0c-2.2 0-4 1.8-4 4s1.8 4 4 4 4-1.8 4-4-1.8-4-4-4zM67 37c-2.2 0-4 1.8-4 4s1.8 4 4 4 4-1.8 4-4-1.8-4-4-4zM13 50c-2.2 0-4 1.8-4 4s1.8 4 4 4 4-1.8 4-4-1.8-4-4-4zm13.5 0c-2.2 0-4 1.8-4 4s1.8 4 4 4 4-1.8 4-4-1.8-4-4-4zM40 50c-2.2 0-4 1.8-4 4s1.8 4 4 4 4-1.8 4-4-1.8-4-4-4zm13.5 0c-2.2 0-4 1.8-4 4s1.8 4 4 4 4-1.8 4-4-1.8-4-4-4zM67 50c-2.2 0-4 1.8-4 4s1.8 4 4 4 4-1.8 4-4-1.8-4-4-4zM13 63c-2.2 0-4 1.8-4 4s1.8 4 4 4 4-1.8 4-4-1.8-4-4-4zm13.5 0c-2.2 0-4 1.8-4 4s1.8 4 4 4 4-1.8 4-4-1.8-4-4-4z"/></svg>