<svg xmlns="http://www.w3.org/2000/svg" viewBox="0 0 80 80"><path d="M80 55.3V55c0-.4-.1-.8-.4-1.2-1-1.8-4.3-3.5-14.5-4.8-1.1-.1-2.1.6-2.2 1.7-.1 1.1.6 2.1 1.7 2.2 6.4.8 9.3 1.8 10.6 2.3C71.5 57 58.6 59 40 59S8.5 57 4.8 55.3C6 54.7 8.9 53.8 15 53c1.1-.1 1.9-1.2 1.7-2.2s-1.1-1.9-2.2-1.7C3.8 50.5.9 52.3.2 54.2c-.1.2-.2.5-.2.8v14.5c0 .8.5 1.6 1.3 1.9.9.3 16 5.7 38.3 5.7 11.4 0 24.6-1.4 38.9-5.6.8-.2 1.4-1 1.4-1.9l.1-14v-.3zM4 68v-8.8c1.9.7 4.7 1.4 8.8 2 7.3 1.2 17 1.8 27.2 1.8s19.9-.6 27.2-1.7c4.1-.6 6.9-1.3 8.8-2l-.1 8.7C40.3 78 10.5 70 4 68zm76-34.8V32.9c0-.3-.1-.6-.2-.9-.8-1.9-3.9-3.7-14.7-5.1-1.1-.1-2.1.6-2.2 1.7-.1 1.1.6 2.1 1.7 2.2 6.4.8 9.3 1.8 10.6 2.3-3.7 1.7-16.7 3.7-35.2 3.7s-31.5-2-35.2-3.7c1.2-.5 4.1-1.4 10.2-2.2 1.1-.1 1.9-1.2 1.7-2.2-.1-1.1-1.1-1.9-2.2-1.7C2.9 28.5.4 30.5 0 32.6v14.8c0 .8.5 1.6 1.3 1.9.9.3 16 5.7 38.3 5.7 11.4 0 24.6-1.4 38.9-5.6.8-.2 1.4-1 1.4-1.9l.1-14v-.3zM4 45.9v-8.8c1.9.7 4.7 1.4 8.8 2 7.3 1.1 16.9 1.7 27.2 1.7s19.9-.6 27.2-1.7c4.1-.6 6.9-1.3 8.8-2l-.1 8.8c-35.6 10-65.4 2-71.9 0zm76-34.8c0-.1 0-.1 0 0v-.2c0-.3-.1-.6-.2-.8-.8-2.4-4.8-4-12.6-5.2C59.9 3.6 50.3 3 40 3s-19.9.6-27.2 1.8C4.2 6.2.3 8 0 10.7V25.4c0 .8.5 1.6 1.3 1.9.9.3 16 5.8 38.3 5.8 11.4 0 24.6-1.4 38.9-5.6.8-.2 1.4-1 1.4-1.9l.1-14.4v-.1zM40 7c19.2 0 32.3 2.3 35.5 4.1-3.2 1.8-16.3 4.1-35.5 4.1S7.7 12.9 4.5 11.1C7.7 9.3 20.8 7 40 7zM4 24v-8.8c2.1.8 5 1.5 8.8 2.1 7.3 1.2 16.9 1.8 27.2 1.8s19.9-.6 27.2-1.8c3.8-.6 6.7-1.3 8.8-2.1l-.1 8.8C40.3 34.1 10.5 26 4 24z"/></svg>
