<svg xmlns="http://www.w3.org/2000/svg" viewBox="0 0 80 80"><path d="M79.9 20.9c-.1.8-.5 1.5-1.1 2.1l-7.5 6.9c-.4.4-.9.5-1.4.5-.5 0-1.1-.2-1.5-.6-.7-.8-.7-2.1.1-2.8l5.1-4.7-16.7-.3-31.3 39.2c-.4.5-1 .8-1.6.8H2c-1.1 0-2-.9-2-2s.9-2 2-2h21l31.3-39.3c.4-.5 1-.7 1.6-.8l17.3.2-4.7-4.3c-.8-.7-.9-2-.1-2.8.7-.8 2-.9 2.8-.1l7.5 6.9c.4.4.7.8.9 1.3.2.3.3.7.3 1.1.1.3 0 .5 0 .7zm.1 38c0 1.1-.9 2-2 2l-22.1-.1c-.6 0-1.1-.3-1.5-.7L42.5 46.2c-.7-.8-.6-2.1.2-2.8.8-.7 2.1-.6 2.8.2l11.3 13.2H78c1.1.1 2 1 2 2.1zM25.3 18.7c-.4-.4-.9-.7-1.5-.7H2c-1.1 0-2 .9-2 2s.9 2 2 2h20.8l11.6 13.3c.4.5 1 .7 1.5.7s.9-.2 1.3-.5c.8-.7.9-2 .2-2.8l-12.1-14zm44.6 49.9c-.5 0-1.1-.2-1.5-.6-.7-.8-.7-2.1.1-2.8l7.1-6.5-7.1-6.5c-.8-.7-.9-2-.1-2.8.7-.8 2-.9 2.8-.1l7.5 6.9c.7.7 1.1 1.6 1.1 2.6s-.4 1.9-1.1 2.6l-7.5 6.9c-.3.1-.8.3-1.3.3zm6.2-9.6z"/></svg>