<svg xmlns="http://www.w3.org/2000/svg" viewBox="0 0 80 80"><path d="M70.8 62.4c0 4.7-3.8 8.5-8.5 8.5s-8.5-3.8-8.5-8.5 3.8-8.5 8.5-8.5 8.5 3.8 8.5 8.5zM40 63c-4.7 0-8.5 3.8-8.5 8.5S35.3 80 40 80s8.5-3.8 8.5-8.5S44.7 63 40 63zm-22.3-9.4c-4.7 0-8.5 3.8-8.5 8.5s3.8 8.5 8.5 8.5 8.5-3.8 8.5-8.5-3.8-8.5-8.5-8.5zM8.5 31.5C3.8 31.5 0 35.3 0 40s3.8 8.5 8.5 8.5S17 44.7 17 40s-3.8-8.5-8.5-8.5zm9.2-22.4c-4.7 0-8.5 3.8-8.5 8.5s3.8 8.5 8.5 8.5 8.5-3.8 8.5-8.5-3.8-8.5-8.5-8.5zM40 17c-4.7 0-8.5-3.8-8.5-8.5S35.3 0 40 0s8.5 3.8 8.5 8.5S44.7 17 40 17zm0-13c-2.5 0-4.5 2-4.5 4.5s2 4.5 4.5 4.5 4.5-2 4.5-4.5S42.5 4 40 4zm31.5 44.5c-4.7 0-8.5-3.8-8.5-8.5s3.8-8.5 8.5-8.5S80 35.3 80 40s-3.8 8.5-8.5 8.5zm0-13c-2.5 0-4.5 2-4.5 4.5s2 4.5 4.5 4.5 4.5-2 4.5-4.5-2-4.5-4.5-4.5zm-9.2-9.1c-4.7 0-8.5-3.8-8.5-8.5s3.8-8.5 8.5-8.5 8.5 3.8 8.5 8.5-3.8 8.5-8.5 8.5zm0-13c-2.5 0-4.5 2-4.5 4.5s2 4.5 4.5 4.5 4.5-2 4.5-4.5-2-4.5-4.5-4.5z"/></svg>