<svg xmlns="http://www.w3.org/2000/svg" viewBox="0 0 80 80"><path d="M78 80H2c-1.1 0-2-.9-2-2V2C0 .9.9 0 2 0s2 .9 2 2v74h74c1.1 0 2 .9 2 2s-.9 2-2 2zM70 4.1c-3.3 0-6 2.7-6 6 0 1.5.6 3 1.6 4L55.2 31.5c-.9-.2-1.8-.2-2.7.1-1.3.3-2.3 1.1-3.1 2L36 29c0-3.3-2.7-6-6-6-1.6 0-3.1.6-4.2 1.8S24 27.4 24 29c0 1.8.8 3.4 2 4.5L16 58c-3.3 0-6 2.7-6 6s2.7 6 6 6 6-2.7 6-6c0-1.9-.9-3.5-2.2-4.6L29.7 35h.3c1.9 0 3.6-.9 4.7-2.2L48 37.4c0 .5.1 1 .2 1.5.4 1.5 1.4 2.8 2.8 3.6.9.5 1.9.8 3 .8.5 0 1.1-.1 1.6-.2 3.2-.9 5.1-4.2 4.2-7.4-.2-.8-.6-1.6-1.2-2.3L69.1 16c.3 0 .6.1.9.1 3.3 0 6-2.7 6-6 0-3.4-2.7-6-6-6z"/></svg>
