<svg xmlns="http://www.w3.org/2000/svg" viewBox="0 0 80 80"><path d="M77.6 26.5c0-.1-.1-.1-.1-.2-.1-.1-.3-.2-.5-.3C73 22.7 63.7 16 42.1.9c-1.4-1-3.2-1-4.5 0-3.5 2.4-12.5 8.6-20.7 14.5C0 27.3 0 27.7 0 29.1v47.1c0 2.2 1.8 4 4 4h72c2.2 0 4-1.8 4-4V29.5c0-.5 0-1-2.4-3zM28.8 55.7L4 73.5v-43l24.8 25.2zm10-2.3c.7-.5 1.6-.5 2.3 0l31.7 22.8H7.1l31.7-22.8zm12.4 2.3L76 30.6v42.9L51.2 55.7zM39.8 4.2C55.3 15 67.4 23.7 73 27.9L47.9 53.3l-4.4-3.2c-2.1-1.5-4.9-1.5-7 0l-4.4 3.2L6.8 27.6c5.4-4.1 17.6-12.7 33-23.4zM37.2 37c-.5 0-1-.2-1.4-.6l-7.2-6.9c-.8-.8-.8-2-.1-2.8.8-.8 2-.8 2.8-.1l5.8 5.6 11.4-11.6c.8-.8 2-.8 2.8 0 .8.8.8 2 0 2.8l-12.8 13c-.3.4-.8.6-1.3.6z"/></svg>