<svg xmlns="http://www.w3.org/2000/svg" viewBox="0 0 80 80"><path d="M80 44v11.6c0 3.6-2.8 6.4-6.2 6.4H6.3l5.1 4.5c.8.7.9 2 .2 2.8-.5.5-1.1.7-1.6.7s-.9-.2-1.3-.5L1.4 63C.5 62.2 0 61.1 0 60s.5-2.2 1.4-3l7.3-6.5c.8-.7 2.1-.7 2.8.2.7.8.7 2.1-.2 2.8l-5 4.5h67.5c1.2 0 2.2-1.1 2.2-2.4V44c0-1.1.9-2 2-2s2 .9 2 2zm-1.4-27l-7.3-6.5c-.8-.7-2.1-.7-2.8.2-.7.8-.7 2.1.2 2.8l5.1 4.5H6.1C2.7 18 0 20.9 0 24.4V36c0 1.1.9 2 2 2s2-.9 2-2V24.4C4 23.1 5 22 6.2 22h67.6l-5.1 4.5c-.8.7-.9 2-.2 2.8.4.4.9.7 1.5.7.5 0 .9-.2 1.3-.5l7.3-6.5c.9-.8 1.4-1.9 1.4-3s-.5-2.2-1.4-3z"/></svg>
