<svg xmlns="http://www.w3.org/2000/svg" viewBox="0 0 80 80"><path d="M57 46c-9.4 0-17 7.6-17 17s7.6 17 17 17 17-7.6 17-17-7.6-17-17-17zm0 30c-7.2 0-13-5.8-13-13s5.8-13 13-13 13 5.8 13 13-5.8 13-13 13zm8-13c0 1.1-.9 2-2 2h-4v4c0 1.1-.9 2-2 2s-2-.9-2-2v-4h-4c-1.1 0-2-.9-2-2s.9-2 2-2h4v-4c0-1.1.9-2 2-2s2 .9 2 2v4h4c1.1 0 2 .9 2 2zM24 14c0-1.1.9-2 2-2h16c1.1 0 2 .9 2 2s-.9 2-2 2H26c-1.1 0-2-.9-2-2zm18 8H26c-1.1 0-2 .9-2 2s.9 2 2 2h16c1.1 0 2-.9 2-2s-.9-2-2-2zM62 2v38c0 1.1-.9 2-2 2s-2-.9-2-2V4H16.7C13 4 10 7 10 10.7v42c1.9-1.4 4.4-2.3 7.2-2.3H36c1.1 0 2 .9 2 2s-.9 2-2 2H17.2c-3.9 0-7.2 2.6-7.2 5.8 0 3.2 3.2 5.8 7.2 5.8H34c1.1 0 2 .9 2 2s-.9 2-2 2H17.2C11 70 6 65.6 6 60.2V10.7C6 4.8 10.8 0 16.7 0H60c1.1 0 2 .9 2 2z"/></svg>