<svg xmlns="http://www.w3.org/2000/svg" viewBox="0 0 80 80"><path d="M67 64.3l4-2.5c.6-.3 1-1 1-1.7V2c0-1.1-.9-2-2-2H20C13.4 0 8 5.4 8 12v12c0 1.1.9 2 2 2s2-.9 2-2V12c0-4.4 3.6-8 8-8h48v54H20.6c-3.3 0-6.3 1.1-8.5 2.9V44c0-1.1-.9-2-2-2s-2 .9-2 2v24.1c-.1.3-.1.6-.1.9 0 6.1 5.6 11 12.6 11H70c.9 0 1.7-.6 1.9-1.4.2-.9-.1-1.8-.8-2.2L67 73.7c-1.8-1.2-2.9-2.9-2.9-4.7 0-1.9 1.1-3.6 2.9-4.7zM20.6 76c-4.7 0-8.6-3.1-8.6-7s3.8-7 8.6-7h42.8c-2.1 1.8-3.2 4.3-3.2 7s1.2 5.2 3.2 7H20.6zM43 34.4c-.1 1-.5 1.9-1.2 2.6l-9.3 9.4c-.5.4-1 .6-1.5.6s-1-.2-1.4-.6c-.8-.8-.8-2 0-2.8l7.5-7.6H6c-1.1 0-2-.9-2-2s.9-2 2-2h31.1l-7.5-7.6c-.8-.8-.8-2.1 0-2.8s2.1-.8 2.8 0l9.4 9.4c.8.8 1.2 1.8 1.2 2.8v.6z"/></svg>
