<svg xmlns="http://www.w3.org/2000/svg" viewBox="0 0 80 80"><path d="M63 46c-9.4 0-17 7.6-17 17s7.6 17 17 17 17-7.6 17-17-7.6-17-17-17zm0 30c-7.2 0-13-5.8-13-13s5.8-13 13-13 13 5.8 13 13-5.8 13-13 13zm8-13c0 1.1-.9 2-2 2h-4v4c0 1.1-.9 2-2 2s-2-.9-2-2v-4h-4c-1.1 0-2-.9-2-2s.9-2 2-2h4v-4c0-1.1.9-2 2-2s2 .9 2 2v4h4c1.1 0 2 .9 2 2zm7-63H2C.9 0 0 .9 0 2v76c0 1.1.9 2 2 2h37c.2 0 .3 0 .5-.1.2 0 .3.1.5.1 1.1 0 2-.9 2-2V42h36c1.1 0 2-.9 2-2V2c0-1.1-.9-2-2-2zM38 76H23V61h15v15zm-19 0H4V61h15v15zM4 4h15v15H4V4zm0 53V42h15v15H4zm0-19V23h15v15H4zm19-15h15v15H23V23zm0-4V4h15v15H23zM42 4h15v15H42V4zm19 0h15v15H61V4zm15 19v15H61V23h15zM38 57H23V42h15v15zm4-34h15v15H42V23z"/></svg>
