<svg xmlns="http://www.w3.org/2000/svg" viewBox="0 0 80 80"><path d="M10.1 15.1c-1.4 1.2-2.3 2.9-2.4 4.8s.4 3.7 1.7 5.1c1.4 1.6 3.4 2.4 5.3 2.4 1.6 0 3.2-.6 4.6-1.7 1.4-1.2 2.3-2.9 2.4-4.8.1-1.9-.4-3.7-1.7-5.1-2.5-2.8-7-3.2-9.9-.7zm6.5 7.7c-1.3 1.1-3.2.9-4.3-.3-.5-.6-.8-1.4-.7-2.2.1-.8.4-1.5 1-2s1.3-.7 2-.7c.9 0 1.7.4 2.3 1.1.5.6.8 1.4.7 2.2 0 .6-.4 1.3-1 1.9zm47.9 20.8L35.1 9.2c-.3-.4-.7-.6-1.2-.7L6.8 4.1c-1.7-.3-3.5.2-4.8 1.3C.7 6.5 0 8.2 0 9.9l.2 27.4c0 .5.2.9.5 1.3l29.4 34.3c1.2 1.5 3 2.2 4.8 2.2 1.4 0 2.8-.5 3.9-1.4l25.1-21.4c1.2-1 2-2.5 2.1-4.1.1-1.7-.4-3.4-1.5-4.6zm-3.2 5.6L36.2 70.6c-.9.8-2.3.6-3.1-.3L4.2 36.5 4 9.9c0-.6.2-1 .6-1.4.4-.4 1-.5 1.5-.4l26.4 4.3 28.9 33.8c.4.5.6 1 .5 1.6.1.6-.2 1.1-.6 1.4zM51 76c-.6 0-1.1-.2-1.5-.7-.7-.8-.6-2.1.2-2.8L75 50.7c1.1-1 1.2-2.8.2-4L48.5 15.3c-.7-.8-.6-2.1.2-2.8.8-.7 2.1-.6 2.8.2l26.8 31.5c2.4 2.9 2.2 7.2-.6 9.6L52.3 75.6c-.3.3-.8.4-1.3.4z"/></svg>
