<svg xmlns="http://www.w3.org/2000/svg" viewBox="0 0 80 80"><path d="M58 60c-.8 0-1.5-.4-1.8-1.1l-8-16.3c-.1-.3-.2-.6-.2-.9V4c0-1.1.9-2 2-2h16c1.1 0 2 .9 2 2v37.7c0 .3-.1.6-.2.9l-8 16.3c-.3.7-1 1.1-1.8 1.1zm-6-18.7l6 12.2 6-12.2V6H52v35.3zm14 .4zM78 68H65.7c-.9-3.5-4-6-7.7-6s-6.9 2.6-7.7 6H29.7c-.9-3.5-4-6-7.7-6s-6.9 2.6-7.7 6H2c-1.1 0-2 .9-2 2s.9 2 2 2h12.3c.9 3.5 4 6 7.7 6s6.9-2.6 7.7-6h20.6c.9 3.5 4 6 7.7 6s6.9-2.6 7.7-6H78c1.1 0 2-.9 2-2s-.9-2-2-2zm-56-8c-.8 0-1.5-.4-1.8-1.1l-8-16.3c-.1-.3-.2-.6-.2-.9V4c0-1.1.9-2 2-2h16c1.1 0 2 .9 2 2v37.7c0 .3-.1.6-.2.9l-8 16.3c-.3.7-1 1.1-1.8 1.1zm-6-18.7l6 12.2 6-12.2V6H16v35.3zm14 .4z"/></svg>
