<svg xmlns="http://www.w3.org/2000/svg" viewBox="0 0 80 80"><path d="M35.7 78.4h-.3c-1.1-.2-1.8-1.2-1.7-2.3.8-5.2 1.5-11.5 1.4-13.5-1.7-1.2-1.8-2.8-1.7-3.7C31 58.3 30 57 29.6 56c-1.1-2.6.6-5.5.9-5.8.1-.2.2-.3.4-.4.2-.2.5-.5.7-.8-1.1-.4-1.6-.4-1.9-.4-.4 0-1.6-.1-2.3-1.3-.1-.1-.1-.3-.2-.5-.2-.6-.6-1.6-3.6-1.7-2.4-.1-4.2-.8-5.3-2.1-1.1-1.2-1.2-2.6-1.2-3.4-.3-1.2-1.3-3.7-3.2-4.5-3.6-1.5-2.6-5.8-1.9-9 .2-1 .6-2.8.5-3.3-1.3-2.1-1.3-7-1.2-8.5 0-1.1 1-2 2-2 1.1 0 2 .9 2 2-.1 2.7.2 5.7.6 6.3 1 1.6.5 3.9 0 6.3-.3 1.3-.9 3.9-.5 4.4 4.4 1.9 5.6 7.3 5.7 7.5 0 .2.1.5.1.7s-.1.4.2.7c.4.4 1.2.7 2.3.7 4.8.1 6.4 2.3 7 3.6.7.1 1.6.3 3 .9 1.6.6 2.1 1.8 2.2 2.5.3 1.9-1.3 3.8-2.1 4.5-.3.6-.6 1.5-.4 1.9.1.2.4.4 1.2.6 2.2.4 3.2 1.7 2.9 3.9v.4s.2.1.4.3c1.2.7 2.4 1.3 0 17.2-.4 1-1.2 1.7-2.2 1.7zm6.5 1.4c-.3 0-.5-.1-.8-.2-1-.5-1.5-1.6-1-2.6 1.4-3 6-13.1 9.1-14.9 1.3-.8 1.3-1 1.3-1.4.1-1.3.5-2.8 2.9-4.7 1.2-1 1.5-1.6 1.5-1.8 0-.1-.5-.4-1.6-.7-.9-.2-9.1-2.3-8.4-7.2v-.4c-.3-.5-2.6-.8-4-1h-.3c-.3 0-1.3.1-2 .3-1.5.3-3.1.6-4.4.1-.3-.1-1.2-.4-5.9-4.8L25.8 38c-.6-.5-.8-1.4-.5-2.2.2-.6 1.4-3.5 4-4.2 1-.3 2.5-.3 4.2 1.2h.1c0-.6.2-1.2.7-1.6.7-.6 1.5-1.5 1.8-1.9-.1-2.1.5-4.4 5.3-5.1h.1c-.4-.6-.6-1.3-.4-2 .6-2.1 3.5-2.3 5-2.4h.1c-.2-.4-.6-.8-.9-1.1-.2-.2-.4-.5-.5-.8 0 0-.4-.9-2.1-2.7-.3.4-.7 1.2-.8 2-.2 2.1-1.3 3-2.1 3.5-1.3.7-2.8.4-3.7 0-1.4-.7-3.1-2.6-3.7-3.2-.4-.4-2.1-2.6-1.2-4.9.4-1 1.4-2.3 3.9-2.7.9-.1 1.1-.4 1.1-.4s0-.2-.1-.3c-.1-.1-.1-.3-.1-.5l-.7-4.6c-.2-1.1.5-2.1 1.6-2.3 1.1-.1 2.1.6 2.3 1.7l.7 4.4c.2.7.6 2.1-.1 3.5-.5.9-1.5 2.1-4 2.5-.4.1-.7.2-.8.2.1.2.3.6.5.9.7.8 1.9 1.9 2.4 2.2v-.3c.3-2.2 1.6-4.9 3.8-5.6 1.2-.4 2.5-.1 3.4.8 2 2 2.9 3.4 3.3 4.1.9 1 2.7 3.2 1.9 5.4-.4 1-1.4 2.2-4 2.3h-.5c.1.6.1 1.2-.1 1.8-.5 1.3-1.8 2.2-3.8 2.5-1.7.3-2 .6-2 .6v.7c0 .4.1 1.6-2.1 3.8.5 1.7.6 3.5-.8 4.5-2.1 1.5-4.8-.8-6.2-2-.4-.3-.6-.4-.6-.4-.2 0-.4.3-.6.6l1.6 1.5c1.8 1.6 4 3.5 4.6 4 .4.1 1.6-.2 2.3-.3 1.2-.2 2.3-.4 3.3-.3h.3c3.2.5 8 1.2 7.3 5.9.2.7 3 2.2 5.4 2.7 3.4.8 4.3 2.7 4.6 3.7.3 1.3.1 3.4-2.9 5.8-1.4 1.1-1.4 1.5-1.5 2.1-.2 1.6-.8 2.9-3.3 4.4-1.3.8-4.9 7.4-7.5 13.1-.1.8-.9 1.2-1.6 1.2zm-4.4-62.3zm36.4 38.8c-.4 0-.9-.1-1.3-.4-4.9-4-6-6-7-8-.4-.8-.8-1.6-1.5-2.5-2-2.6-3.3-6.9-4.4-10-.3-1.1-.8-2.4-1-2.7-.7-1.3-1.4-4-.4-6.3.7-1.4 1.9-2.4 3.5-2.7 1.4-.3 1.7-.5 1.8-.5 0 0 .1-.5-.6-2.3-.8-2.2-.2-3.6.4-4.5 1.5-2.1 4.6-2.1 5.2-2.1 1.1 0 2 1 1.9 2.1 0 1.1-1 2-2.1 1.9-.7 0-1.6.2-1.8.5 0 0-.1.3.1.8.7 2 1.2 4 .2 5.7-.9 1.6-2.8 2.1-4.4 2.4-.5.1-.6.3-.7.4-.3.7-.1 2 .2 2.6.4.6.7 1.6 1.3 3.4.9 2.7 2.2 6.7 3.7 8.8.9 1.2 1.4 2.2 1.9 3.1.9 1.7 1.6 3.2 5.9 6.7.9.7 1 2 .3 2.8-.1.5-.6.8-1.2.8zM40 80C17.9 80 0 62.1 0 40S17.9 0 40 0s40 17.9 40 40-17.9 40-40 40zm0-76C20.1 4 4 20.1 4 40s16.1 36 36 36 36-16.1 36-36S59.9 4 40 4z"/></svg>