<svg xmlns="http://www.w3.org/2000/svg" viewBox="0 0 80 80"><path d="M62.1 80H18c-3.3 0-6-2.7-6-6V14c0-1.1.9-2 2-2s2 .9 2 2v60c0 1.1.9 2 2 2h44.1c1 0 1.9-.8 1.9-1.9V14c0-1.1.9-2 2-2s2 .9 2 2v60.1c0 3.3-2.6 5.9-5.9 5.9zm-4.2-68c-1.1 0-2-.9-2-2V4H24.2v6c0 1.1-.9 2-2 2s-2-.9-2-2V4c0-2.2 1.8-4 4.1-4h31.5c2.3 0 4.1 1.8 4.1 4v6c0 1.1-.9 2-2 2zM74 14H6c-1.1 0-2-.9-2-2s.9-2 2-2h68c1.1 0 2 .9 2 2s-.9 2-2 2zM51.4 58.4c-.4.4-.9.6-1.4.6-.5 0-1-.2-1.4-.6L40 49.8l-8.6 8.6c-.4.4-.9.6-1.4.6-.5 0-1-.2-1.4-.6-.8-.8-.8-2 0-2.8l8.6-8.6-8.5-8.6c-.8-.8-.8-2 0-2.8.8-.8 2-.8 2.8 0l8.5 8.5 8.5-8.5c.8-.8 2-.8 2.8 0 .8.8.8 2 0 2.8L42.8 47l8.6 8.6c.8.8.8 2 0 2.8z"/></svg>
