<svg xmlns="http://www.w3.org/2000/svg" viewBox="0 0 80 80"><path d="M74 10H60V4c0-2.2-2-4-4.2-4H24.3C22 0 20 1.8 20 4v6H6c-1.1 0-2 .9-2 2s.9 2 2 2h6v60c0 3.3 2.7 6 6 6h44.1c3.2 0 5.9-2.6 5.9-5.9V14h6c1.1 0 2-.9 2-2s-.9-2-2-2zM24.3 4H56v6H24.2l.1-6c-.1 0-.1 0 0 0zM64 74.1c0 1-.8 1.9-1.9 1.9H18c-1.1 0-2-.9-2-2V14h48v60.1zM40 68c-1.1 0-2-.9-2-2V28c0-1.1.9-2 2-2s2 .9 2 2v38c0 1.1-.9 2-2 2zm-10-6c-1.1 0-2-.9-2-2V34c0-1.1.9-2 2-2s2 .9 2 2v26c0 1.1-.9 2-2 2zm20 0c-1.1 0-2-.9-2-2V34c0-1.1.9-2 2-2s2 .9 2 2v26c0 1.1-.9 2-2 2z"/></svg>