<svg xmlns="http://www.w3.org/2000/svg" viewBox="0 0 80 80"><path d="M74 10H60V4c0-2.2-2-4-4.2-4H24.3C22 0 20 1.8 20 4v6H6c-1.1 0-2 .9-2 2s.9 2 2 2h68c1.1 0 2-.9 2-2s-.9-2-2-2zm-49.8 0V4H56v6H24.2zm37.9 70H18c-3.3 0-6-2.7-6-6.1V28.1c0-1.1.9-2 2-2s2 .9 2 2v45.8c0 1.1.9 2.1 2 2.1h44.1c1 0 1.9-.9 1.9-1.9V28c0-1.1.9-2 2-2s2 .9 2 2v46.1c0 3.3-2.6 5.9-5.9 5.9zm-9.7-26.3L43 62.8c-.8.8-1.8 1.2-3 1.2h-.1c-1.1 0-2.1-.4-2.9-1.2l-9.4-9.1c-.8-.8-.8-2 0-2.8.8-.8 2-.8 2.8 0l7.6 7.3V36c0-1.1.9-2 2-2s2 .9 2 2v22.2l7.6-7.4c.8-.8 2.1-.7 2.8 0 .8.9.8 2.1 0 2.9z"/></svg>