<svg xmlns="http://www.w3.org/2000/svg" viewBox="0 0 80 80"><path d="M74.9 6.6c-.3-1.1-1.4-1.7-2.5-1.4L58.8 8.9 57.2 3c-.3-1-.9-1.9-1.9-2.5-1-.6-2.1-.7-3.2-.4L21.6 8.4c-2.2.6-3.5 2.8-2.9 4.9l1.6 5.9-13.8 3.9c-1.1.3-1.7 1.4-1.4 2.5.2.8 1 1.4 1.9 1.4.2 0 .3 0 .5-.1L73.5 9c1.1-.3 1.7-1.4 1.4-2.4zM24.1 18.3l-1.6-5.9s0-.1.1-.1L53.2 4h.2L55 9.9l-30.9 8.4zm38 61.7H18c-3.3 0-6-2.6-6-5.9v-44c0-1.1.9-2 2-2s2 .9 2 2v44c0 1 .9 1.9 2 1.9h44.1c1 0 1.9-.8 1.9-1.7V30c0-1.1.9-2 2-2s2 .9 2 2v44.3c0 3.1-2.6 5.7-5.9 5.7z"/></svg>
