<svg xmlns="http://www.w3.org/2000/svg" viewBox="0 0 80 80"><path d="M70.1 72H9.9C7.7 72 6 70.2 6 68V28c0-1.1.9-2 2-2s2 .9 2 2v40h60V28c0-1.1.9-2 2-2s2 .9 2 2v40c0 2.2-1.7 4-3.9 4zM4 30c-1.1 0-2-.4-2.8-1.2C.4 28.1 0 27.1 0 26V12.2C0 10 1.8 8.1 4 8.1L76 8c1.1 0 2 .4 2.8 1.2.8.7 1.2 1.7 1.2 2.8v13.7c0 2.2-1.8 4-4 4L4 30zm72-18l-72 .1V26l72-.2V12zM51.4 60.4c-.4.4-.9.6-1.4.6-.5 0-1-.2-1.4-.6L40 51.8l-8.6 8.6c-.4.4-.9.6-1.4.6-.5 0-1-.2-1.4-.6-.8-.8-.8-2 0-2.8l8.6-8.6-8.5-8.6c-.8-.8-.8-2 0-2.8s2-.8 2.8 0l8.5 8.5 8.5-8.5c.8-.8 2-.8 2.8 0 .8.8.8 2 0 2.8L42.8 49l8.6 8.6c.8.8.8 2 0 2.8z"/></svg>