<svg xmlns="http://www.w3.org/2000/svg" viewBox="0 0 80 80"><path d="M12 80v-6h56v6H12zm28-8c-11.9 0-20.1-4.4-24.4-13.1-2.3-4.6-3.5-11.3-3.5-19.7V2c0-1.1.9-2 2-2h9c1.1 0 2 .9 2 2v41c0 4.4.8 8.1 2.4 11 2.3 4.2 6.2 6.2 11.8 6.2 6.9 0 11.4-2.2 13.7-6.7 1.3-2.5 2-6.1 2-10.5V2c0-1.1.9-2 2-2h9c1.1 0 2 .9 2 2v37.2c0 8.4-1.2 15.1-3.5 19.7C60.2 67.6 51.9 72 40 72zM16.1 4v35.2c0 7.8 1 13.8 3.1 17.9C22.8 64.5 29.6 68 40 68s17.2-3.6 20.9-10.9C63 53.1 64 47 64 39.2V4h-5v39c0 5.1-.8 9.2-2.4 12.3-3.1 5.9-8.9 8.9-17.3 8.9-7.1 0-12.2-2.8-15.3-8.2-2-3.5-3-7.8-3-13V4h-4.9z"/></svg>
