<svg xmlns="http://www.w3.org/2000/svg" viewBox="0 0 80 80"><path d="M39.9 38.8c-9.1 0-16.5-7.6-16.5-16.9C23.4 12.6 30.8 5 39.9 5s16.5 7.6 16.5 16.9c.1 9.3-7.4 16.9-16.5 16.9zm0-29.8C33 9 27.4 14.8 27.4 21.9c0 7.1 5.6 12.9 12.5 12.9S52.4 29 52.4 21.9C52.5 14.8 46.8 9 39.9 9zM59 75H21c-1.5 0-2.9-.7-3.9-1.9-1-1.3-1.4-3.1-1.1-4.8 0-.4.1-1.4.4-2.2 1-4.1 4.3-16.6 6.8-20.2 4.2-6 11.3-5.9 12.1-5.9h7.1c.4 0 10.1-.2 13.8 6.3 2.8 3.7 6.4 16.6 7.4 20.6v.2l.1 1c.4 1.7 0 3.5-1 4.9-.8 1.3-2.2 2-3.7 2zM35 44c-1.1 0-5.7.3-8.4 4.2-1.7 2.4-4.7 12.7-6.2 18.9-.2.6-.2 1.4-.3 1.7 0 .1 0 .2-.1.4-.1.5 0 1.1.3 1.5.3.3.6.3.7.3h38c.1 0 .4 0 .7-.4.3-.4.4-1 .3-1.5 0-.1 0-.2-.1-.3l-.1-1c-1.4-6.1-4.9-16.8-6.7-19.1-.1-.1-.1-.2-.2-.3-2.5-4.6-10.3-4.4-10.4-4.4h-7.2-.1-.2zm27-13c-1.2 0-2.3-.1-3.4-.4-1.1-.3-1.7-1.4-1.4-2.4.3-1.1 1.4-1.7 2.4-1.4.8.2 1.6.3 2.4.3 5.1 0 9.2-4 9.2-9s-4.1-9-9.2-9c-1.7 0-3.3.4-4.8 1.3-.9.6-2.2.2-2.7-.7-.6-1-.2-2.2.7-2.7 2-1.4 4.4-2 6.8-2 7.3 0 13.2 5.8 13.2 13S69.3 31 62 31zm16.9 27.4c.9-1.2 1.2-2.8.9-4.2l-.1-.8v-.2c-.7-3-3.3-12.4-5.3-15.3-2.9-5.1-10.1-4.9-10.3-4.9h-5c-.7 0-4.7-.1-7.8 2.8-.2.2-.4.5-.7.9-.1.1-.1.2-.2.2-.7.8-.6 2.1.2 2.8.8.7 2.1.6 2.8-.2.1-.1.2-.3.4-.5.1-.1.2-.3.2-.3 2-1.9 4.8-1.7 4.8-1.7h5.4c.1 0 5.2-.1 6.8 2.9.1.1.1.2.2.3 1.2 1.6 3.7 9.4 4.7 13.8l.1.8c0 .1 0 .2.1.3.1.4-.1.8-.2.9H65c-1.1 0-2 .9-2 2s.9 2 2 2h10.8c1.2 0 2.3-.6 3.1-1.6zM17.9 31c-7.3 0-13.2-5.8-13.2-13S10.6 5 17.9 5c2.4 0 4.8.6 6.8 1.9 1 .6 1.3 1.8.7 2.7-.6.9-1.8 1.3-2.7.7-1.4-.8-3.1-1.3-4.8-1.3-5.1 0-9.2 4-9.2 9s4.1 9 9.2 9c.8 0 1.6-.1 2.4-.3 1.1-.3 2.2.4 2.4 1.4s-.4 2.2-1.4 2.4c-1.1.4-2.2.5-3.4.5zM17 58c0-1.1-.9-2-2-2H4.2c-.1-.1-.3-.6-.2-.9 0-.1 0-.2.1-.3V54c1-4.4 3.4-12.2 4.7-13.8.1-.1.1-.2.2-.3 1.6-3 6.7-2.9 6.9-2.9H21.1s2.8-.2 4.8 1.7c.1.1.2.3.3.4.1.2.3.3.3.4.7.8 2 .9 2.8.2.8-.7.9-2 .2-2.8-.1-.1-.1-.2-.2-.3-.3-.4-.5-.6-.7-.9-3.1-2.9-7.1-2.9-7.8-2.8h-4.9c-.3 0-7.6-.3-10.4 4.9C3.5 40.7.9 50.1.2 53.1v.2l-.1.8c-.3 1.4 0 3 .9 4.2.8 1 1.9 1.6 3.1 1.6H15c1.1.1 2-.8 2-1.9z"/></svg>
