<svg xmlns="http://www.w3.org/2000/svg" viewBox="0 0 80 80"><path d="M39.9 38c-10.5 0-19-8.5-19-19s8.5-19 19-19 19 8.5 19 19-8.5 19-19 19zm0-34c-8.3 0-15 6.7-15 15s6.7 15 15 15 15-6.7 15-15-6.7-15-15-15zm22.5 76H17.6c-1.7 0-3.3-.8-4.3-2.2-1.1-1.5-1.5-3.4-1.1-5.2 0-.4.2-1.6.4-2.5 1.1-4.7 5.1-19.3 8-23.3 5.1-7.1 13.7-6.8 14-6.8h8.3c.4 0 11.7-.1 16 7.3 3.2 4.2 7.5 19.2 8.7 23.9v.2l.2 1.2c.5 1.8.1 3.8-1.1 5.3-1 1.3-2.6 2.1-4.3 2.1zm-28-36c-1 0-7.1.2-10.6 5.1-2 2.8-5.6 14.8-7.4 22-.2.7-.3 1.7-.3 2 0 .1 0 .2-.1.4-.2.7 0 1.4.4 2 .3.4.7.6 1.2.6h44.8c.5 0 .9-.2 1.2-.6.4-.5.5-1.3.4-1.9 0-.1 0-.2-.1-.3l-.2-1.3c-1.7-7.1-5.7-19.6-8-22.4-.1-.1-.1-.2-.2-.3C52.4 43.9 43.1 44 43 44h-8.5-.1z"/></svg>