<svg xmlns="http://www.w3.org/2000/svg" viewBox="0 0 80 80"><path d="M52 47H30c-1.1 0-2-.9-2-2s.9-2 2-2h22c1.1 0 2 .9 2 2s-.9 2-2 2zm28-12c0-1.1-.9-2-2-2H30c-1.1 0-2 .9-2 2s.9 2 2 2h48c1.1 0 2-.9 2-2zm-2 29H30c-1.1 0-2-.9-2-2s.9-2 2-2h48c1.1 0 2 .9 2 2s-.9 2-2 2zm-24 8c0-1.1-.9-2-2-2H30c-1.1 0-2 .9-2 2s.9 2 2 2h22c1.1 0 2-.9 2-2zm24-62H30c-1.1 0-2-.9-2-2s.9-2 2-2h48c1.1 0 2 .9 2 2s-.9 2-2 2zm-24 8c0-1.1-.9-2-2-2H30c-1.1 0-2 .9-2 2s.9 2 2 2h22c1.1 0 2-.9 2-2zM12 76H6c-3.3 0-6-2.7-6-6v-6c0-3.3 2.7-6 6-6h6c3.3 0 6 2.7 6 6v6c0 3.3-2.7 6-6 6zM6 62c-1.1 0-2 .9-2 2v6c0 1.1.9 2 2 2h6c1.1 0 2-.9 2-2v-6c0-1.1-.9-2-2-2H6zm6-13H6c-3.3 0-6-2.7-6-6v-6c0-3.3 2.7-6 6-6h6c3.3 0 6 2.7 6 6v6c0 3.3-2.7 6-6 6zM6 35c-1.1 0-2 .9-2 2v6c0 1.1.9 2 2 2h6c1.1 0 2-.9 2-2v-6c0-1.1-.9-2-2-2H6zm6-13H6c-3.3 0-6-2.7-6-6v-6c0-3.3 2.7-6 6-6h6c3.3 0 6 2.7 6 6v6c0 3.3-2.7 6-6 6zM6 8c-1.1 0-2 .9-2 2v6c0 1.1.9 2 2 2h6c1.1 0 2-.9 2-2v-6c0-1.1-.9-2-2-2H6z"/></svg>