<svg xmlns="http://www.w3.org/2000/svg" viewBox="0 0 80 80"><path d="M78 42c-.6 0-1.3-.3-1.6-.9-3.2-4.6-6.6-8.7-9.9-12.1-.8-.8-.8-2.1 0-2.8.8-.8 2.1-.8 2.8 0 3.5 3.5 6.9 7.8 10.3 12.6.6.9.4 2.2-.5 2.8-.3.3-.7.4-1.1.4zM40.3 68c-3 0-6-.4-9.1-1.3-1.1-.3-1.7-1.4-1.4-2.5.3-1.1 1.4-1.7 2.5-1.4 15.1 4.3 29.9-3.8 44.1-24 .6-.9 1.9-1.1 2.8-.5.9.6 1.1 1.9.5 2.8C67.2 59 54 68 40.3 68zM2 42c-.4 0-.7-.1-1-.3-1-.6-1.3-1.8-.7-2.7.2-.3 5.1-8.3 13.3-15.6C24.8 13.6 36.7 10 48.3 13.1c1.1.3 1.7 1.4 1.4 2.4-.3 1.1-1.4 1.7-2.4 1.4C22.5 10.4 3.9 40.7 3.7 41c-.4.7-1 1-1.7 1zm10 12.4c-.5 0-1-.2-1.4-.6C4.2 47.4.4 41.3.3 41c-.6-.9-.3-2.1.7-2.7.9-.6 2.1-.3 2.7.7 0 .1 3.6 6 9.7 12 .8.8.8 2 0 2.8-.4.4-.9.6-1.4.6zm16-12.7c-1.1 0-2-.9-2-2 0-7.7 6.3-14 14-14 1.1 0 2 .9 2 2s-.9 2-2 2c-5.5 0-10 4.5-10 10 0 1.1-.9 2-2 2zm12 12c-1.1 0-2-.9-2-2s.9-2 2-2c5.5 0 10-4.5 10-10 0-1.1.9-2 2-2s2 .9 2 2c0 7.7-6.3 14-14 14zm5-14c0 2.8-2.2 5-5 5s-5-2.2-5-5 2.2-5 5-5 5 2.2 5 5zm-5 6c-3.3 0-6-2.7-6-6s2.7-6 6-6 6 2.7 6 6-2.7 6-6 6zm0-10c-2.2 0-4 1.8-4 4s1.8 4 4 4 4-1.8 4-4-1.8-4-4-4zM13 69c-.5 0-1-.2-1.4-.6-.8-.8-.8-2 0-2.8l54-54c.8-.8 2-.8 2.8 0 .8.8.8 2 0 2.8l-54 54c-.4.4-.9.6-1.4.6z"/></svg>
