<svg xmlns="http://www.w3.org/2000/svg" viewBox="0 0 80 80"><path d="M45 39.7c0 2.8-2.2 5-5 5s-5-2.2-5-5 2.2-5 5-5 5 2.2 5 5zm-5 6c-3.3 0-6-2.7-6-6s2.7-6 6-6 6 2.7 6 6-2.7 6-6 6zm0-10c-2.2 0-4 1.8-4 4s1.8 4 4 4 4-1.8 4-4-1.8-4-4-4zm0 18c-7.7 0-14-6.3-14-14s6.3-14 14-14 14 6.3 14 14-6.3 14-14 14zm0-24c-5.5 0-10 4.5-10 10s4.5 10 10 10 10-4.5 10-10-4.5-10-10-10zm.2 38.3h-1.1c-9.5-.3-19.2-5.1-28.2-13.8C4.3 47.6.4 41.3.3 41c-.6-.9-.3-2.1.7-2.7.9-.6 2.1-.3 2.7.7.1.2 14.9 24.3 35.5 25 12.7.4 25.2-8 37.1-25.1.6-.9 1.9-1.1 2.8-.5.9.6 1.1 1.9.5 2.8C67.2 59 53.9 68 40.2 68zM78 42c-.6 0-1.3-.3-1.6-.9C64.4 24 52 15.6 39.3 16c-20.7.7-35.4 24.8-35.6 25-.6 1-1.8 1.3-2.7.7-1-.6-1.3-1.8-.7-2.7.2-.3 4-6.6 10.7-13.1 8.9-8.7 18.7-13.5 28.2-13.8 14.1-.5 27.8 8.6 40.5 26.8.6.9.4 2.2-.5 2.8-.4.2-.8.3-1.2.3z"/></svg>