<svg xmlns="http://www.w3.org/2000/svg" viewBox="0 0 80 80"><path d="M11.8 76H5.9c-3.3 0-6-2.7-6-6v-6c0-3.3 2.7-6 6-6h5.9c3.3 0 6 2.7 6 6v6c0 3.3-2.6 6-6 6zM5.9 62c-1.1 0-2 .9-2 2v6c0 1.1.9 2 2 2h5.9c1.1 0 2-.9 2-2v-6c0-1.1-.9-2-2-2H5.9zm5.9-13H5.9c-3.3 0-6-2.7-6-6v-6c0-3.3 2.7-6 6-6h5.9c3.3 0 6 2.7 6 6v6c0 3.3-2.6 6-6 6zM5.9 35c-1.1 0-2 .9-2 2v6c0 1.1.9 2 2 2h5.9c1.1 0 2-.9 2-2v-6c0-1.1-.9-2-2-2H5.9zm5.9-13H5.9c-3.3 0-6-2.7-6-6v-6c0-3.3 2.7-6 6-6h5.9c3.3 0 6 2.7 6 6v6c0 3.3-2.6 6-6 6zM5.9 8c-1.1 0-2 .9-2 2v6c0 1.1.9 2 2 2h5.9c1.1 0 2-.9 2-2v-6c0-1.1-.9-2-2-2H5.9zm70 68H30c-2.2 0-4-1.8-4-4V62c0-2.2 1.8-4 4-4h45.9c2.2 0 4 1.8 4 4v10c0 2.2-1.8 4-4 4zM30 62v10h45.9V62H30zm45.9-13H30c-2.2 0-4-1.8-4-4V35c0-2.2 1.8-4 4-4h45.9c2.2 0 4 1.8 4 4v10c0 2.2-1.8 4-4 4zM30 35v10h45.9V35H30zm45.9-13H30c-2.2 0-4-1.8-4-4V8c0-2.2 1.8-4 4-4h45.9c2.2 0 4 1.8 4 4v10c0 2.2-1.8 4-4 4zM30 8v10h45.9V8H30z"/></svg>
