<svg xmlns="http://www.w3.org/2000/svg" viewBox="0 0 80 80"><path d="M74 80H52c-3.3 0-6-2.7-6-6V51c0-3.3 2.7-6 6-6h22c3.3 0 6 2.7 6 6v23c0 3.3-2.7 6-6 6zM52 49c-1.1 0-2 .9-2 2v23c0 1.1.9 2 2 2h22c1.1 0 2-.9 2-2V51c0-1.1-.9-2-2-2H52zM28 80H6c-3.3 0-6-2.7-6-6V51c0-3.3 2.7-6 6-6h22c3.3 0 6 2.7 6 6v23c0 3.3-2.7 6-6 6zM6 49c-1.1 0-2 .9-2 2v23c0 1.1.9 2 2 2h22c1.1 0 2-.9 2-2V51c0-1.1-.9-2-2-2H6zm68-14H52c-3.3 0-6-2.7-6-6V6c0-3.3 2.7-6 6-6h22c3.3 0 6 2.7 6 6v23c0 3.3-2.7 6-6 6zM52 4c-1.1 0-2 .9-2 2v23c0 1.1.9 2 2 2h22c1.1 0 2-.9 2-2V6c0-1.1-.9-2-2-2H52zM28 34H6c-3.3 0-6-2.7-6-6V6c0-3.3 2.7-6 6-6h22c3.3 0 6 2.7 6 6v22c0 3.3-2.7 6-6 6zM6 4c-1.1 0-2 .9-2 2v22c0 1.1.9 2 2 2h22c1.1 0 2-.9 2-2V6c0-1.1-.9-2-2-2H6z"/></svg>
