<svg xmlns="http://www.w3.org/2000/svg" viewBox="0 0 80 80"><path d="M40 48c-1.1 0-2-.9-2-2V24c0-1.1.9-2 2-2s2 .9 2 2v22c0 1.1-.9 2-2 2zm0 4c-2.8 0-5 2.2-5 5s2.2 5 5 5 5-2.2 5-5-2.2-5-5-5zm32.1 20H7.9C5 72 2.5 70.4 1 67.7c-1.5-2.8-1.4-6.1.3-8.6l32-47.8C34.8 9.2 37.1 8 39.7 8c2.8 0 5.5 1.4 7.1 3.8l31.9 47.3c1.7 2.5 1.8 5.7.3 8.6-1.5 2.7-4 4.3-6.9 4.3zM36.7 13.5l-32 47.8c-.8 1.2-.9 3-.1 4.5.7 1.4 2 2.2 3.3 2.2h64.3c1.3 0 2.6-.8 3.3-2.2.8-1.5.8-3.3-.1-4.5L43.4 14c-.8-1.2-2.3-2-3.8-2-.6 0-2 .2-2.9 1.5z"/></svg>